<svg width="9" height="7" viewBox="0 0 9 7" fill="none" xmlns="http://www.w3.org/2000/svg">
<path d="M9 1.33187C9 1.46655 8.94581 1.58103 8.83742 1.67531L4.63355 5.33187L3.84387 6.01874C3.73548 6.11302 3.60387 6.16016 3.44903 6.16016C3.29419 6.16016 3.16258 6.11302 3.05419 6.01874L2.26452 5.33187L0.162581 3.50359C0.0541936 3.40931 0 3.29484 0 3.16016C0 3.02548 0.0541936 2.911 0.162581 2.81672L0.952258 2.12985C1.06065 2.03558 1.19226 1.98844 1.3471 1.98844C1.50194 1.98844 1.63355 2.03558 1.74194 2.12985L3.44903 3.61975L7.25806 0.30157C7.36645 0.207294 7.49806 0.160156 7.6529 0.160156C7.80774 0.160156 7.93935 0.207294 8.04774 0.30157L8.83742 0.988439C8.94581 1.08272 9 1.19719 9 1.33187Z" fill="#C4AB54"/>
</svg>
