<svg width="96" height="95" viewBox="0 0 96 95" fill="none" xmlns="http://www.w3.org/2000/svg">
<path d="M3.59304 48.781C4.01544 48.781 4.43527 48.6044 4.73263 48.2593C8.04655 44.4169 11.0047 43.6589 14.136 42.8562C17.4189 42.0148 21.1398 41.0613 25.0703 36.5042C29.0013 31.9463 29.3988 28.1257 29.7486 24.7547C30.0829 21.5391 30.3987 18.5015 33.7135 14.6586C37.0279 10.8153 39.986 10.0573 43.1177 9.2546C45.8133 8.5632 48.8049 7.7923 51.965 5.01724V15.9349C51.965 16.7651 52.6388 17.4389 53.469 17.4389C54.2996 17.4389 54.973 16.7651 54.973 15.9349V1.50393C54.973 0.673733 54.2996 -4.95911e-05 53.469 -4.95911e-05H39.0385C38.2083 -4.95911e-05 37.5345 0.673733 37.5345 1.50393C37.5345 2.33456 38.2083 3.00792 39.0385 3.00792H49.6867C47.1836 5.10017 44.8305 5.70993 42.3709 6.34032C39.0879 7.18212 35.3666 8.13607 31.4356 12.694C27.5047 17.2519 27.1076 21.0729 26.757 24.4435C26.4226 27.6595 26.1072 30.6967 22.7929 34.5391C19.4785 38.382 16.5208 39.1396 13.3891 39.9427C10.1061 40.7841 6.38572 41.7372 2.45517 46.2947C1.91244 46.9238 1.98248 47.8735 2.61158 48.4158C2.89562 48.6611 3.24497 48.781 3.59304 48.781Z" fill="#C2A84D"/>
<path d="M2.42391 82.6721C3.25453 82.6721 3.92789 81.9988 3.92789 81.1681V56.804H31.489V81.0427C31.489 81.8733 32.1624 82.5466 32.993 82.5466C33.8232 82.5466 34.497 81.8733 34.497 81.0427V31.8147H62.1273V81.1698C62.1273 82.0005 62.8011 82.6738 63.6313 82.6738C64.4619 82.6738 65.1353 82.0005 65.1353 81.1698V30.8328C65.1353 30.6919 65.1099 30.5578 65.0734 30.4285C65.0902 30.3378 65.1013 30.2454 65.1013 30.1496V3.20721H93.8399C94.6705 3.20721 95.3439 2.53386 95.3439 1.70323C95.3439 0.873032 94.6705 0.199249 93.8399 0.199249H63.5973C62.7672 0.199249 62.0934 0.873032 62.0934 1.70323V28.8067H32.9677C32.137 28.8067 31.4637 29.4805 31.4637 30.3107V53.7961H2.42391C1.59328 53.7961 0.919922 54.4694 0.919922 55.3V81.1681C0.919922 81.9988 1.59328 82.6721 2.42391 82.6721Z" fill="#114034"/>
<path d="M87.2357 42.7393H81.3758V36.8798H87.2357V42.7393ZM87.1275 60.5198H81.268V54.6599H87.1275V60.5198ZM87.1275 78.2552H81.268V72.3953H87.1275V78.2552ZM72.4001 63.4994H78.26V69.3589H72.4001V63.4994ZM72.4001 45.7645H78.26V51.624H72.4001V45.7645ZM72.5087 27.9839H78.3683V33.8439H72.5087V27.9839ZM72.5087 10.2485H78.3683V16.1085H72.5087V10.2485ZM87.2357 25.0048H81.3758V19.1448H87.2357V25.0048ZM88.7397 28.0127C89.5703 28.0127 90.2437 27.3394 90.2437 26.5087V17.6408C90.2437 16.8106 89.5703 16.1368 88.7397 16.1368H81.3762V8.74455C81.3762 7.91435 80.7024 7.24057 79.8722 7.24057H71.0048C70.1741 7.24057 69.5008 7.91435 69.5008 8.74455V17.6125C69.5008 18.4427 70.1741 19.1164 71.0048 19.1164H78.3683V24.976H71.0048C70.1741 24.976 69.5008 25.6493 69.5008 26.48V35.3474C69.5008 36.1781 70.1741 36.8514 71.0048 36.8514H78.3683V42.7565H70.8961C70.0654 42.7565 69.3921 43.4298 69.3921 44.2605V53.1275C69.3921 53.9582 70.0654 54.6315 70.8961 54.6315H78.26V60.4915H70.8961C70.0654 60.4915 69.3921 61.1648 69.3921 61.9954V70.8629C69.3921 71.6931 70.0654 72.3669 70.8961 72.3669H78.26V79.7592C78.26 80.5894 78.9333 81.2632 79.764 81.2632H88.6315C89.4617 81.2632 90.1354 80.5894 90.1354 79.7592V70.8913C90.1354 70.0611 89.4617 69.3873 88.6315 69.3873H81.268V63.5278H88.6315C89.4617 63.5278 90.1354 62.8544 90.1354 62.0238V53.1563C90.1354 52.3257 89.4617 51.6523 88.6315 51.6523H81.268V45.7473H88.7397C89.5703 45.7473 90.2437 45.0739 90.2437 44.2433V35.3762C90.2437 34.5456 89.5703 33.8722 88.7397 33.8722H81.3762V28.0127H88.7397Z" fill="#C2A84D"/>
<path d="M55.6669 69.6312H49.8069V63.7717H55.6669V69.6312ZM46.6907 78.5155H40.8307V72.656H46.6907V78.5155ZM40.9395 54.8759H46.799V60.7358H40.9395V54.8759ZM40.9395 37.1405H46.799V43.0004H40.9395V37.1405ZM55.6669 51.8963H49.8069V46.0367H55.6669V51.8963ZM57.1709 54.9042C58.0011 54.9042 58.6748 54.2309 58.6748 53.4002V44.5328C58.6748 43.7026 58.0011 43.0288 57.1709 43.0288H49.8069V35.6365C49.8069 34.8063 49.1336 34.1325 48.303 34.1325H39.4355C38.6053 34.1325 37.9315 34.8063 37.9315 35.6365V44.5044C37.9315 45.3346 38.6053 46.0084 39.4355 46.0084H46.799V51.8679H39.4355C38.6053 51.8679 37.9315 52.5413 37.9315 53.3719V62.2394C37.9315 63.07 38.6053 63.7433 39.4355 63.7433H46.799V69.6484H39.3267C38.4965 69.6484 37.8228 70.3218 37.8228 71.1524V80.0195C37.8228 80.8501 38.4965 81.5234 39.3267 81.5234H48.1946C49.0253 81.5234 49.6986 80.8501 49.6986 80.0195V72.6392H57.1709C58.0011 72.6392 58.6748 71.9658 58.6748 71.1352V62.2682C58.6748 61.4375 58.0011 60.7642 57.1709 60.7642H49.8069V54.9042H57.1709Z" fill="#C2A84D"/>
<path d="M10.7809 63.7746H16.6404V69.6345H10.7809V63.7746ZM25.508 78.5304H19.648V72.6708H25.508V78.5304ZM18.144 81.5383H27.0119C27.8426 81.5383 28.5159 80.8645 28.5159 80.0343V71.1669C28.5159 70.3362 27.8426 69.6629 27.0119 69.6629H19.648V62.2706C19.648 61.44 18.9746 60.7666 18.144 60.7666H9.27693C8.4463 60.7666 7.77295 61.44 7.77295 62.2706V71.1381C7.77295 71.9687 8.4463 72.6421 9.27693 72.6421H16.64V80.0343C16.64 80.8645 17.3138 81.5383 18.144 81.5383Z" fill="#C2A84D"/>
<path d="M94.0048 85.7083H2.0074C1.1772 85.7083 0.503418 86.3817 0.503418 87.2123C0.503418 88.043 1.1772 88.7163 2.0074 88.7163H94.0048C94.8354 88.7163 95.5088 88.043 95.5088 87.2123C95.5088 86.3817 94.8354 85.7083 94.0048 85.7083Z" fill="#114034"/>
<path d="M93.8398 91.513H2.00398C1.17378 91.513 0.5 92.1864 0.5 93.017C0.5 93.8476 1.17378 94.521 2.00398 94.521H93.8398C94.6704 94.521 95.3438 93.8476 95.3438 93.017C95.3438 92.1864 94.6704 91.513 93.8398 91.513Z" fill="#C2A84D"/>
</svg>
