<svg width="96" height="83" viewBox="0 0 96 83" fill="none" xmlns="http://www.w3.org/2000/svg">
<path d="M45.4961 66.224C44.5148 67.2416 43.5509 68.2374 42.436 69.1553C41.4605 69.958 40.3669 70.6997 39.0414 71.3411C37.6999 71.9898 36.1226 72.5374 34.1842 72.9397C28.141 74.194 24.741 72.7765 21.1421 71.2767C17.5214 69.7673 13.7821 68.2161 7.65168 69.15L6.3252 72.7649C6.48011 72.776 6.63697 72.7746 6.79673 72.7417C12.8404 71.4883 16.2399 72.9048 19.8384 74.4046C22.7 75.597 25.6308 76.8194 29.7604 76.8189C31.2824 76.8189 32.9686 76.6529 34.8726 76.2578C38.4203 75.522 40.9541 74.3596 42.9714 72.9978C44.1488 72.2033 45.149 71.3397 46.0727 70.4542C46.7195 69.8345 47.3309 69.2037 47.9356 68.5768C50.6442 65.7684 53.2028 63.115 59.2475 61.8611C59.9567 61.7144 60.6262 61.607 61.2672 61.5295L62.5559 58.0163C61.3326 58.0792 60.0124 58.2419 58.5591 58.5435C51.4905 60.0094 48.4429 63.1687 45.4961 66.224Z" fill="#C2A84D"/>
<path d="M86.176 65.5893L85.0088 62.3365C79.959 63.0395 76.8548 61.7551 73.5933 60.3957C71.3334 59.4541 69.0252 58.4975 66.1214 58.1354L64.9126 61.4308C67.78 61.6496 69.9958 62.5684 72.2896 63.5241C75.9878 65.0655 79.8084 66.6534 86.176 65.5893Z" fill="#C2A84D"/>
<path d="M59.8328 75.277C60.8978 75.2441 61.9532 75.1961 63.0042 75.1487C70.1672 74.8238 76.9967 74.5155 85.658 78.7723H58.5508L59.8328 75.277ZM64.9126 61.4307L66.1214 58.1353L71.0057 44.8226H78.724L85.0088 62.3365L86.176 65.5893L90.4561 77.5184C79.4153 71.0143 71.0028 71.3929 62.8507 71.7637C62.2635 71.7904 61.6782 71.8165 61.0934 71.8402L64.9126 61.4307ZM81.5111 42.556C81.2695 41.8825 80.6314 41.4338 79.9164 41.4338H65.1309C64.4754 42.5521 63.7604 43.6815 62.9877 44.8226H67.3961L62.5559 58.0163L61.2667 61.5295L57.4504 71.9327C53.8094 71.9458 50.1117 71.6534 46.0722 70.4542C45.1485 71.3397 44.1488 72.2028 42.9709 72.9978C47.7782 74.7343 52.1014 75.2445 56.2106 75.3118L54.9412 78.7723H4.121L6.32518 72.7649L7.65118 69.15L15.8967 46.6729C18.8043 53.834 22.6085 61.1378 33.261 68.0694C35.2706 69.3766 37.1915 70.4518 39.0409 71.3411C40.3669 70.6996 41.46 69.958 42.4355 69.1548C40.1326 68.1934 37.7066 66.9192 35.1094 65.2291C25.0049 58.6543 21.6393 51.9081 18.8043 44.8226H31.751C30.9784 43.6815 30.2633 42.5521 29.6078 41.4338H15.3927C14.6815 41.4338 14.0464 41.8772 13.8019 42.5448L0.10379 79.8834C-0.0869518 80.4028 -0.0119134 80.9828 0.305184 81.4369C0.62228 81.8905 1.14077 82.1611 1.6946 82.1611H93.3143C93.8657 82.1611 94.3828 81.8924 94.6999 81.4412C95.0174 80.9905 95.0954 80.413 94.909 79.8945L81.5111 42.556Z" fill="#114034"/>
<path d="M47.3697 4.22762C58.302 4.22762 67.1957 13.1213 67.1957 24.0537C67.1957 38.4567 51.672 53.6391 47.3692 57.5696C43.0664 53.6429 27.5436 38.4746 27.5436 24.0537C27.5436 13.1213 36.4373 4.22762 47.3697 4.22762ZM35.2851 49.6156C40.7072 56.4092 46.0524 60.942 46.2775 61.1318C46.5931 61.3975 46.9814 61.5307 47.3697 61.5307C47.7579 61.5307 48.1462 61.3975 48.4618 61.1318C48.687 60.942 54.0321 56.4092 59.4542 49.6156C60.7458 47.9972 61.9198 46.3996 62.9883 44.8223C63.7609 43.6817 64.4755 42.5518 65.131 41.434C68.7512 35.2595 70.5846 29.438 70.5846 24.0537C70.5846 11.2527 60.1702 0.838795 47.3697 0.838795C34.5691 0.838795 24.1548 11.2527 24.1548 24.0537C24.1548 29.438 25.9886 35.2595 29.6084 41.434C30.2639 42.5518 30.9789 43.6817 31.7516 44.8223C32.82 46.3996 33.9935 47.9972 35.2851 49.6156Z" fill="#C2A84D"/>
<path d="M38.8766 24.0537C38.8766 19.3708 42.6866 15.5613 47.369 15.5613C52.0524 15.5613 55.8619 19.3708 55.8619 24.0537C55.8619 28.7365 52.0524 32.5465 47.369 32.5465C42.6866 32.5465 38.8766 28.7365 38.8766 24.0537ZM47.369 35.9354C53.9211 35.9354 59.2507 30.6052 59.2507 24.0537C59.2507 17.5021 53.9211 12.1725 47.369 12.1725C40.8179 12.1725 35.4878 17.5021 35.4878 24.0537C35.4878 30.6052 40.8179 35.9354 47.369 35.9354Z" fill="#C2A84D"/>
</svg>
