<svg width="87" height="88" viewBox="0 0 87 88" fill="none" xmlns="http://www.w3.org/2000/svg">
<path d="M3.44762 78.7278L4.77617 75.1062H81.4439L82.7437 78.7278H3.44762ZM82.7437 85.1534H3.44762L4.76483 81.5631H81.4552L82.7437 85.1534ZM85.9176 80.9612C86.1833 80.5837 86.2486 80.1009 86.0926 79.6667L84.4562 75.1062H84.7584C85.2197 75.1062 85.6523 74.8814 85.9176 74.5039C86.1833 74.1268 86.2486 73.6436 86.0926 73.2098L73.9056 39.2454C73.7038 38.6824 73.17 38.3065 72.5713 38.3065H61.3515L62.4002 41.1418H71.5737L82.7437 72.2709H3.44762L14.8679 41.1418H24.4084L25.4575 38.3065H13.878C13.2834 38.3065 12.752 38.6775 12.547 39.2361L0.0865374 73.2005C-0.0726461 73.6351 -0.00986369 74.1204 0.255442 74.4999C0.520343 74.8798 0.954553 75.1062 1.41752 75.1062H1.75614L0.0865374 79.6574C-0.0726461 80.092 -0.00986369 80.5772 0.255442 80.9572C0.520343 81.3367 0.954553 81.5631 1.41752 81.5631H1.7448L0.0865374 86.083C-0.0726461 86.5176 -0.00986369 87.0033 0.255442 87.3828C0.520343 87.7628 0.954553 87.9888 1.41752 87.9888H84.7584C85.2197 87.9888 85.6523 87.7644 85.9176 87.3869C86.1833 87.0094 86.2486 86.5265 86.0926 86.0927L84.4672 81.5631H84.7584C85.2197 81.5631 85.6523 81.3383 85.9176 80.9612Z" fill="#C2A84D"/>
<path d="M50.157 38.3063H36.6519L35.293 41.1416H51.5155L50.157 38.3063Z" fill="#C2A84D"/>
<path d="M63.2943 65.7191H23.5138L22.1553 68.5544H64.6532L63.2943 65.7191Z" fill="#C2A84D"/>
<path d="M76.4738 67.959C76.7395 67.5852 76.8083 67.1064 76.6585 66.6726L72.8405 55.6492C72.6428 55.0785 72.1049 54.6958 71.501 54.6958H71.4966L67.4189 54.7087L68.1424 56.6643C68.2007 56.8219 68.2303 56.9883 68.2303 57.156V57.5412L70.4924 57.5343L73.3274 65.7191H68.2303V68.5544H75.3186C75.7771 68.5544 76.2077 68.3325 76.4738 67.959Z" fill="#C2A84D"/>
<path d="M17.2973 45.9326L10.0482 66.6685C9.8967 67.1024 9.96434 67.5823 10.2301 67.957C10.4958 68.3317 10.9267 68.5544 11.3861 68.5544H18.5785V65.7191H13.3837L19.6417 47.8181H21.9387L22.9874 44.9827H18.6356C18.0329 44.9827 17.4962 45.3639 17.2973 45.9326Z" fill="#C2A84D"/>
<path d="M41.112 56.2042C41.112 56.5809 41.2619 56.9422 41.5288 57.2083C41.7949 57.4732 42.1546 57.6218 42.5297 57.6218H42.5342L59.389 57.5688L58.0321 54.7379L43.9474 54.782V46.4004C43.9474 45.6174 43.3127 44.9827 42.5297 44.9827H33.4522L32.0933 47.8181H41.112V56.2042Z" fill="#C2A84D"/>
<path d="M36.5368 31.9862L21.4139 63.5406V57.4102L32.5406 27.3277C33.4511 29.2035 34.836 30.8071 36.5368 31.9862ZM65.3948 57.4102V63.5406L50.2569 31.9546C51.9581 30.7642 53.3398 29.1472 54.2422 27.2577L65.3948 57.4102ZM43.3748 12.8898C48.4476 12.8898 52.575 17.0169 52.575 22.0897C52.575 27.1629 48.4476 31.2899 43.3748 31.2899C38.302 31.2899 34.175 27.1629 34.175 22.0897C34.175 17.0169 38.302 12.8898 43.3748 12.8898ZM46.0505 2.84669V10.3583C45.1894 10.1618 44.2942 10.0545 43.3748 10.0545C42.284 10.0545 41.228 10.2032 40.2231 10.4766V2.84669H46.0505ZM24.4085 41.1419L22.9876 44.9829L21.9389 47.8183L18.6669 56.6645C18.6082 56.8217 18.5786 56.9885 18.5786 57.1562V65.7189V68.5542V69.7791C18.5786 70.4406 19.0367 71.0145 19.6824 71.1615C19.7869 71.185 19.8926 71.1968 19.9967 71.1968C20.5326 71.1968 21.0352 70.8914 21.2746 70.3915L22.1552 68.5542L23.5141 65.7189L32.093 47.8183L33.4519 44.9829L35.2929 41.1419L36.6518 38.3065L39.0432 33.316C40.3884 33.8364 41.8478 34.1252 43.3748 34.1252C44.92 34.1252 46.3972 33.8292 47.7558 33.2961L50.1569 38.3065L51.5154 41.1419L58.0318 54.7381L59.3887 57.569L63.2946 65.7189L64.6535 68.5542L65.5341 70.3915C65.7739 70.8918 66.2761 71.1968 66.812 71.1968C66.9161 71.1968 67.0218 71.185 67.1263 71.1615C67.772 71.0145 68.2301 70.4406 68.2301 69.7791V68.5542V65.7189V57.5414V57.1562C68.2301 56.9885 68.2005 56.8217 68.1418 56.6645L67.4184 54.7089L62.4002 41.1419L61.3516 38.3065L55.4067 22.2339C55.4071 22.1857 55.4104 22.1383 55.4104 22.0897C55.4104 17.4393 52.7569 13.3994 48.8859 11.3964V1.42903C48.8859 0.646072 48.2511 0.0113678 47.4682 0.0113678H38.8054C38.0225 0.0113678 37.3878 0.646072 37.3878 1.42903V11.6565C33.7772 13.736 31.3396 17.6325 31.3396 22.0897C31.3396 22.1881 31.3449 22.2853 31.3469 22.3829L25.4571 38.3065L24.4085 41.1419Z" fill="#114034"/>
<path d="M40.3915 21.9384C40.3915 20.2806 41.7399 18.9318 43.3977 18.9318C45.0556 18.9318 46.4044 20.2806 46.4044 21.9384C46.4044 23.5963 45.0556 24.9447 43.3977 24.9447C41.7399 24.9447 40.3915 23.5963 40.3915 21.9384ZM43.3977 27.78C46.6191 27.78 49.2397 25.1594 49.2397 21.9384C49.2397 18.7171 46.6191 16.0964 43.3977 16.0964C40.1768 16.0964 37.5562 18.7171 37.5562 21.9384C37.5562 25.1594 40.1768 27.78 43.3977 27.78Z" fill="#114034"/>
</svg>
