<svg xmlns="http://www.w3.org/2000/svg" xmlns:xlink="http://www.w3.org/1999/xlink" viewBox="0 0 416.83 66.64"><defs><style>.cls-1{fill:none;}.cls-2{clip-path:url(#clip-path);}.cls-3{fill:#c2a84d;}.cls-4{fill:#124033;}</style><clipPath id="clip-path" transform="translate(0 0)"><rect class="cls-1" width="416.83" height="66.64"/></clipPath></defs><g id="Слой_2" data-name="Слой 2"><g id="Слой_1-2" data-name="Слой 1"><g class="cls-2"><path class="cls-3" d="M22.13,5.67a8.33,8.33,0,0,0,0,11.79l5.66,5.67,5.67-5.67a8.35,8.35,0,0,0,0-11.79L27.79,0Z" transform="translate(0 0)"/><path class="cls-3" d="M47.48,6.88a8.35,8.35,0,0,0-8.35,8.35v8h8a8.35,8.35,0,0,0,8.34-8.34v-8Z" transform="translate(0 0)"/><path class="cls-3" d="M0,14.86a8.34,8.34,0,0,0,8.34,8.35h8v-8A8.34,8.34,0,0,0,8,6.85H0Z" transform="translate(0 0)"/></g><rect class="cls-3" x="0.06" y="26.55" width="55.41" height="6.6"/><g class="cls-2"><path class="cls-4" d="M288.85,29.08a8.72,8.72,0,0,1-8.82-9,8.72,8.72,0,0,1,8.82-9c5.08,0,8.77,3.78,8.77,9s-3.69,9-8.77,9M302.32,6.86h-4.65V9.69a13.53,13.53,0,0,0-22.31,10.38,13.53,13.53,0,0,0,22.31,10.39v2.78h4.65Z" transform="translate(0 0)"/><path class="cls-4" d="M374.32,29.08a8.72,8.72,0,0,1-8.82-9,8.72,8.72,0,0,1,8.82-9c5.08,0,8.77,3.78,8.77,9s-3.69,9-8.77,9M387.79,6.86h-4.65V9.69a13.53,13.53,0,0,0-22.31,10.38,13.53,13.53,0,0,0,22.31,10.39v2.78h4.65Z" transform="translate(0 0)"/><path class="cls-4" d="M108.17,29.08a8.72,8.72,0,0,1-8.82-9,8.72,8.72,0,0,1,8.82-9c5.08,0,8.77,3.78,8.77,9s-3.69,9-8.77,9m.07-22.64A13.34,13.34,0,0,0,99.4,9.72V6.86H94.74V17h0V41.4H99.4v-11a13.35,13.35,0,0,0,8.84,3.27c7.62,0,13.36-5.86,13.36-13.63S115.86,6.44,108.24,6.44" transform="translate(0 0)"/><path class="cls-4" d="M320.33,29.06a8.72,8.72,0,0,1-8.81-9,8.71,8.71,0,0,1,8.81-9,8.6,8.6,0,0,1,8.77,9c0,5.22-3.69,9-8.77,9m.08-22.63a13.37,13.37,0,0,0-8.85,3.28V6.84H306.9V16.93h0V41.38h4.65v-11a13.38,13.38,0,0,0,8.85,3.27c7.61,0,13.36-5.86,13.36-13.63A13.2,13.2,0,0,0,320.41,6.43" transform="translate(0 0)"/></g><polygon class="cls-4" points="174.52 6.9 174.52 17.3 161.11 17.3 161.11 6.9 156.48 6.9 156.48 33.28 161.11 33.28 161.11 21.9 174.52 21.9 174.52 33.27 179.15 33.27 179.15 6.9 174.52 6.9"/><polygon class="cls-4" points="69.42 33.25 74.05 33.25 74.05 11.44 89.98 11.44 89.98 6.89 69.42 6.89 69.42 33.25"/><g class="cls-2"><path class="cls-4" d="M203.6,11.4V28.65H192.13c1-2.66,1.48-7.23,2.19-17.25Zm4.63-4.54H190l-.11,1.52c-1.1,15-1.56,18.59-2.91,20.27h-3.52V39.74H188V33.25h19v6.49h4.57V28.65h-3.34Z" transform="translate(0 0)"/></g><polygon class="cls-4" points="247.01 6.89 240.95 6.89 231.91 17.28 229.96 17.28 229.96 6.89 225.31 6.89 225.31 33.25 229.96 33.25 229.96 21.86 231.88 21.86 241.74 33.25 247.83 33.25 235.99 19.57 247.01 6.89"/><g class="cls-2"><path class="cls-4" d="M256.3,21.77h7.53c2.37,0,4,1.38,4,3.44s-1.58,3.44-3.93,3.44H256.3Zm7.49-4.57H256.3V11.48h7.49c2,0,3.28,1.07,3.28,2.87s-1.26,2.85-3.28,2.85m5.83,2.13a7.08,7.08,0,0,0,2.09-5.15c0-4.29-3.2-7.29-7.78-7.29H251.67V33.25H264c4.84,0,8.49-3.41,8.49-7.93a7.49,7.49,0,0,0-2.86-6" transform="translate(0 0)"/></g><polygon class="cls-4" points="335.46 11.45 344.95 11.45 344.95 33.25 349.58 33.25 349.58 11.45 359.1 11.45 359.1 6.89 335.46 6.89 335.46 11.45"/><g class="cls-2"><path class="cls-4" d="M399.9,6.89,398,24.23c-.45,4.16-1.66,4.46-3.6,4.46h-2v4.59h1.91c5.12,0,7.59-2.6,8.25-8.71L404,11.42h8.17V33.25h4.64V6.89Z" transform="translate(0 0)"/><path class="cls-4" d="M138.43,29.08a8.72,8.72,0,0,1-8.82-9,8.72,8.72,0,0,1,8.82-9c5.08,0,8.77,3.78,8.77,9s-3.69,9-8.77,9M151.91,6.86h-4.66V9.69a13.53,13.53,0,0,0-22.31,10.38,13.53,13.53,0,0,0,22.31,10.39v2.78h4.66Z" transform="translate(0 0)"/></g><polygon class="cls-3" points="77.87 53.62 74.09 59.01 72.87 59.01 72.87 53.62 70.65 53.62 70.65 66.46 72.87 66.46 72.87 60.95 74.39 60.95 78.31 66.46 80.99 66.46 76.19 59.76 80.61 53.62 77.87 53.62"/><g class="cls-2"><path class="cls-3" d="M94.49,59.7a5.6,5.6,0,0,0-.81-3.27,2.84,2.84,0,0,0-4.55,0,5.49,5.49,0,0,0-.83,3.2v.74a5.56,5.56,0,0,0,.82,3.27,2.85,2.85,0,0,0,4.57,0,5.7,5.7,0,0,0,.8-3.3Zm2.23.67a7.91,7.91,0,0,1-.65,3.31,5,5,0,0,1-1.87,2.19,5.42,5.42,0,0,1-5.57,0,5,5,0,0,1-1.89-2.17,7.77,7.77,0,0,1-.68-3.26v-.72a7.9,7.9,0,0,1,.67-3.32,5,5,0,0,1,1.88-2.2,5.5,5.5,0,0,1,5.56,0,5,5,0,0,1,1.88,2.17,7.93,7.93,0,0,1,.67,3.3Z" transform="translate(0 0)"/></g><polygon class="cls-3" points="113.75 53.62 110.06 63.46 106.35 53.62 103.46 53.62 103.46 66.46 105.68 66.46 105.68 62.23 105.46 56.57 109.25 66.46 110.84 66.46 114.63 56.56 114.41 62.23 114.41 66.46 116.64 66.46 116.64 53.62 113.75 53.62"/><path class="cls-3" d="M128.65,56.34l1.86,5.33h-3.72Zm-1-2.72L122.8,66.46h2.32l1-3h5l1.05,3h2.33l-4.86-12.84Z" transform="translate(0 0)"/><g class="cls-2"><path class="cls-3" d="M142.72,59.9h2.68a2.68,2.68,0,0,0,1.82-.56,2.1,2.1,0,0,0,.62-1.62,2.25,2.25,0,0,0-.63-1.67,2.48,2.48,0,0,0-1.75-.63h-2.74Zm0,1.8v4.76h-2.23V53.62h4.91a5,5,0,0,1,3.42,1.12,3.75,3.75,0,0,1,1.26,3,3.63,3.63,0,0,1-1.24,2.94,5.14,5.14,0,0,1-3.47,1.06Z" transform="translate(0 0)"/><path class="cls-3" d="M164.57,59.7a5.6,5.6,0,0,0-.81-3.27,2.84,2.84,0,0,0-4.55,0,5.49,5.49,0,0,0-.84,3.2v.74a5.56,5.56,0,0,0,.83,3.27,2.85,2.85,0,0,0,4.57,0,5.7,5.7,0,0,0,.8-3.3Zm2.23.67a7.91,7.91,0,0,1-.65,3.31,5,5,0,0,1-1.87,2.19,5.42,5.42,0,0,1-5.57,0,5,5,0,0,1-1.89-2.17,7.62,7.62,0,0,1-.68-3.26v-.72a7.9,7.9,0,0,1,.67-3.32,5,5,0,0,1,1.88-2.2,5.09,5.09,0,0,1,2.78-.76,5.14,5.14,0,0,1,2.78.75,5,5,0,0,1,1.88,2.17,7.93,7.93,0,0,1,.67,3.3Z" transform="translate(0 0)"/><path class="cls-3" d="M175.77,60.66v4h2.48a2.44,2.44,0,0,0,1.64-.52,2.06,2.06,0,0,0-1.46-3.5Zm0-1.64H178a2.48,2.48,0,0,0,1.62-.47,1.91,1.91,0,0,0,0-2.71,2.76,2.76,0,0,0-1.69-.42h-2.17Zm-2.23,7.44V53.62h4.4a5.41,5.41,0,0,1,3.32.87,3.09,3.09,0,0,1,1.13,2.6,2.83,2.83,0,0,1-.47,1.59,3.11,3.11,0,0,1-1.4,1.09,2.79,2.79,0,0,1,1.61,1.07,3.08,3.08,0,0,1,.57,1.87,3.4,3.4,0,0,1-1.16,2.78,5,5,0,0,1-3.32,1Z" transform="translate(0 0)"/><path class="cls-3" d="M197.47,59.7a5.6,5.6,0,0,0-.81-3.27,2.84,2.84,0,0,0-4.55,0,5.49,5.49,0,0,0-.83,3.2v.74a5.56,5.56,0,0,0,.82,3.27,2.85,2.85,0,0,0,4.57,0,5.7,5.7,0,0,0,.8-3.3Zm2.23.67a7.91,7.91,0,0,1-.65,3.31,5,5,0,0,1-1.87,2.19,5.42,5.42,0,0,1-5.57,0,5,5,0,0,1-1.89-2.17,7.77,7.77,0,0,1-.68-3.26v-.72a7.9,7.9,0,0,1,.67-3.32,5,5,0,0,1,1.88-2.2,5.5,5.5,0,0,1,5.56,0A5,5,0,0,1,199,56.36a7.93,7.93,0,0,1,.67,3.3Z" transform="translate(0 0)"/></g><polygon class="cls-3" points="214.56 53.62 214.56 66.46 216.79 66.46 216.79 55.42 222.44 55.42 222.44 66.46 224.66 66.46 224.66 53.62 214.56 53.62"/><path class="cls-3" d="M236.72,56.34l1.86,5.33h-3.73Zm-1-2.72-4.85,12.84h2.32l1-3h5l1.05,3h2.33l-4.86-12.84Z" transform="translate(0 0)"/><g class="cls-2"><path class="cls-3" d="M250.75,59.9h2.68a2.68,2.68,0,0,0,1.82-.56,2.07,2.07,0,0,0,.62-1.62,2.25,2.25,0,0,0-.63-1.67,2.46,2.46,0,0,0-1.75-.63h-2.74Zm0,1.8v4.76h-2.23V53.62h4.91a5,5,0,0,1,3.42,1.12,3.75,3.75,0,0,1,1.26,3,3.66,3.66,0,0,1-1.23,2.94,5.19,5.19,0,0,1-3.48,1.06Z" transform="translate(0 0)"/></g><polygon class="cls-3" points="271.35 53.62 267.57 59.01 266.35 59.01 266.35 53.62 264.12 53.62 264.12 66.46 266.35 66.46 266.35 60.95 267.86 60.95 271.79 66.46 274.47 66.46 269.67 59.76 274.08 53.62 271.35 53.62"/></g></g></svg>