<svg xmlns="http://www.w3.org/2000/svg" viewBox="0 0 61 60.99"><defs><style>.cls-1{fill:#384e52;}.cls-2{fill:#78ba59;}</style></defs><g id="Слой_2" data-name="Слой 2"><g id="Layer_1" data-name="Layer 1"><path class="cls-1" d="M27.23,22.69V33.22H29v2.52H27.23V38.3H24.41V35.74H12.94V33.16l9-10.47ZM16.45,33.22h8v-8h-1.3Z"/><path class="cls-1" d="M39.65,22.69c4.4,0,8.41,3,8.41,7.79s-4,7.82-8.41,7.82H31.77V22.69Zm-5,13h4.94c3.33,0,5.59-2.09,5.59-5.2s-2.26-5.2-5.59-5.2H34.65Z"/><path class="cls-2" d="M61,0H0V7.12H0V53.87H0V61H61V0ZM7.13,7.12H53.88V53.87H7.13Z"/></g></g></svg>