<?xml version="1.0" encoding="utf-8"?>
<!-- Generator: Adobe Illustrator 25.2.3, SVG Export Plug-In . SVG Version: 6.00 Build 0)  -->
<svg version="1.1" id="Слой_1" xmlns="http://www.w3.org/2000/svg" xmlns:xlink="http://www.w3.org/1999/xlink" x="0px" y="0px"
	 viewBox="0 0 481.2 439.2" style="enable-background:new 0 0 481.2 439.2;" xml:space="preserve">
<style type="text/css">
	.st0{fill:#00FD00;}
</style>
<path class="st0" d="M481.1,0L481.1,0L0,0v439.2h0.1v0h481.1L481.1,0L481.1,0z M25.4,415.1v-391h430.4v391H25.4z"/>
<g>
	<g>
		<path d="M208.6,152.7v87.3h14.3v20.8h-14.3v21.3h-23.4v-21.3h-95v-21.3l74.9-86.8H208.6z M119.2,239.9h66v-66h-10.8L119.2,239.9z"
			/>
		<path d="M311.5,152.7c36.5,0,69.7,25,69.7,64.6s-33.5,64.8-69.7,64.8h-65.3V152.7H311.5z M270.1,260.3H311
			c27.6,0,46.3-17.3,46.3-43.1c0-25.7-18.7-43.1-46.3-43.1h-40.9V260.3z"/>
	</g>
</g>
</svg>
