<svg width="52" height="51" viewBox="0 0 52 51" fill="none" xmlns="http://www.w3.org/2000/svg">
<path d="M42.5904 19.5318H32.2819V9.22332C32.2819 8.62651 31.7936 8.13821 31.1967 8.13821C30.5999 8.13821 30.1116 8.62651 30.1116 9.22332V19.5318H19.8031C19.2063 19.5318 18.718 20.0201 18.718 20.6169C18.718 21.2137 19.2063 21.702 19.8031 21.702H30.1116V32.0106C30.1116 32.6074 30.5999 33.0957 31.1967 33.0957C31.7936 33.0957 32.2819 32.6074 32.2819 32.0106V21.702H42.5904C43.1872 21.702 43.6755 21.2137 43.6755 20.6169C43.6755 20.0201 43.1872 19.5318 42.5904 19.5318Z" fill="white"/>
<path d="M31.1968 0C19.8032 0 10.5798 9.2234 10.5798 20.617C10.5798 25.717 12.4245 30.383 15.517 33.9638L0.325532 49.1553C-0.108511 49.5894 -0.108511 50.2404 0.325532 50.6745C0.542553 50.8915 0.813829 51 1.08511 51C1.35638 51 1.62766 50.8915 1.84468 50.6745L16.9819 35.5372C20.6713 39.0638 25.717 41.234 31.1968 41.234C42.5904 41.234 51.8138 32.0106 51.8138 20.617C51.8138 9.2234 42.5904 0 31.1968 0ZM31.1968 39.0638C21.0511 39.0638 12.75 30.7628 12.75 20.617C12.75 10.4713 21.0511 2.17021 31.1968 2.17021C41.3425 2.17021 49.6436 10.4713 49.6436 20.617C49.6436 30.7628 41.3425 39.0638 31.1968 39.0638Z" fill="white"/>
</svg>
