<svg width="127" height="17" viewBox="0 0 127 17" fill="none" xmlns="http://www.w3.org/2000/svg"><path d="M52.1242 8.5C52.1242 9.89072 52.4095 11.165 52.9802 12.3228L56.0354 9.39485C55.9951 9.10663 55.975 8.80834 55.975 8.5C55.975 7.4825 56.1942 6.57459 56.6325 5.77624C57.0864 4.9779 57.7047 4.35958 58.4874 3.92127C59.2701 3.46731 60.1467 3.24033 61.1173 3.24033C61.1434 3.24033 61.1695 3.2405 61.1955 3.24083C61.3674 3.04216 61.5649 2.83169 61.8073 2.58927C62.6955 1.70105 63.9422 1.16095 65.1757 0.833531C63.9529 0.277844 62.6001 0 61.1173 0C59.411 0 57.8691 0.367864 56.4916 1.10359C55.1297 1.83932 54.0574 2.85681 53.2747 4.15608C52.5077 5.43969 52.1242 6.88766 52.1242 8.5Z" fill="gray"/><path d="M68.9532 4.18384C68.6373 5.52404 68.0822 6.92127 67.1108 7.89266C66.7849 8.21857 66.5167 8.46319 66.2573 8.67381C66.2328 9.62117 66.0065 10.4712 65.5786 11.2238C65.1403 12.0221 64.5298 12.6482 63.7471 13.1022C62.9644 13.5405 62.0878 13.7597 61.1173 13.7597C60.7125 13.7597 60.3242 13.7216 59.9521 13.6453L57.2933 16.1713C57.2678 16.1954 57.2422 16.2194 57.2165 16.2432C58.404 16.7477 59.7043 17 61.1173 17C62.8235 17 64.3576 16.6321 65.7195 15.8964C67.0814 15.1607 68.1536 14.151 68.9363 12.8674C69.719 11.5681 70.1104 10.1123 70.1104 8.5C70.1104 6.89928 69.7246 5.46056 68.9532 4.18384Z" fill="gray"/><path fill-rule="evenodd" clip-rule="evenodd" d="M46.7623 11.4351L49.6252 15.5379L48.3936 16.7182H46.3631L43.1933 12.1395H39.6946V16.7182H35.8908V0.281767H43.0054C44.4612 0.281767 45.7213 0.524401 46.7858 1.00967C47.8659 1.49494 48.6956 2.1837 49.2747 3.07597C49.8539 3.96823 50.1435 5.02486 50.1435 6.24586C50.1435 7.46685 49.8461 8.52348 49.2513 9.41575C48.6721 10.2924 47.8424 10.9655 46.7623 11.4351ZM46.2927 6.24586C46.2927 5.32228 45.9953 4.61786 45.4004 4.1326C44.8056 3.63168 43.9368 3.38122 42.7941 3.38122H39.6946V9.1105H42.7941C43.9368 9.1105 44.8056 8.86004 45.4004 8.35912C45.9953 7.8582 46.2927 7.15378 46.2927 6.24586Z" fill="gray"/><path fill-rule="evenodd" clip-rule="evenodd" d="M5.35359 13.1961H12.9848L14.4406 16.7182H18.4323L11.0829 0.281767H7.32597L0 16.7182H3.89779L5.35359 13.1961ZM9.18094 4.01519L11.7873 10.308H6.57459L9.18094 4.01519Z" fill="gray"/><path d="M32.8641 16.7182V13.6657H23.918V9.86188H31.5492V6.90332H23.918V3.33425H32.5589V0.281767H20.1376V16.7182H32.8641Z" fill="gray"/><path d="M78.9567 10.2611L76.7495 12.5622V16.7182H72.9691V0.281767H76.7495V7.95994L84.0285 0.281767H88.2551L81.4457 7.60773L88.6542 16.7182H84.2164L78.9567 10.2611Z" fill="gray"/><path fill-rule="evenodd" clip-rule="evenodd" d="M93.0884 15.8964C94.4659 16.6321 96.0078 17 97.7141 17C99.4204 17 100.954 16.6321 102.316 15.8964C103.678 15.1607 104.75 14.151 105.533 12.8674C106.316 11.5681 106.707 10.1123 106.707 8.5C106.707 6.88766 106.316 5.43969 105.533 4.15608C104.75 2.85681 103.678 1.83932 102.316 1.10359C100.954 0.367864 99.4204 0 97.7141 0C96.0078 0 94.4659 0.367864 93.0884 1.10359C91.7265 1.83932 90.6543 2.85681 89.8716 4.15608C89.1045 5.43969 88.721 6.88766 88.721 8.5C88.721 10.1123 89.1045 11.5681 89.8716 12.8674C90.6543 14.151 91.7265 15.1607 93.0884 15.8964ZM100.344 13.1022C99.5612 13.5405 98.6846 13.7597 97.7141 13.7597C96.7436 13.7597 95.867 13.5405 95.0843 13.1022C94.3016 12.6482 93.6832 12.0221 93.2293 11.2238C92.791 10.4254 92.5718 9.5175 92.5718 8.5C92.5718 7.4825 92.791 6.57459 93.2293 5.77624C93.6832 4.9779 94.3016 4.35958 95.0843 3.92127C95.867 3.46731 96.7436 3.24033 97.7141 3.24033C98.6846 3.24033 99.5612 3.46731 100.344 3.92127C101.127 4.35958 101.737 4.9779 102.175 5.77624C102.629 6.57459 102.856 7.4825 102.856 8.5C102.856 9.5175 102.629 10.4254 102.175 11.2238C101.737 12.0221 101.127 12.6482 100.344 13.1022Z" fill="gray"/><path fill-rule="evenodd" clip-rule="evenodd" d="M109.566 0.281767H117.033C118.817 0.281767 120.391 0.62615 121.752 1.31492C123.13 1.98803 124.194 2.94291 124.946 4.17956C125.713 5.41621 126.096 6.85635 126.096 8.5C126.096 10.1436 125.713 11.5838 124.946 12.8204C124.194 14.0571 123.13 15.0198 121.752 15.7086C120.391 16.3817 118.817 16.7182 117.033 16.7182H109.566V0.281767ZM116.845 13.5953C118.489 13.5953 119.796 13.1413 120.766 12.2334C121.752 11.3099 122.246 10.0654 122.246 8.5C122.246 6.93462 121.752 5.69797 120.766 4.79006C119.796 3.86648 118.489 3.4047 116.845 3.4047H113.37V13.5953H116.845Z" fill="gray"/><path d="M59.9531 6.13971C60.6076 5.19761 60.9926 4.59067 61.2733 4.14214C60.1946 4.23754 59.1606 5.57975 59.1606 5.57975L59.8726 6.2917C59.8933 6.23906 59.9197 6.18793 59.9531 6.13971Z" fill="gray"/><path d="M63.413 9.83212L64.1245 10.5436C64.1245 10.5436 65.4667 9.50976 65.5621 8.43111C65.1137 8.71168 64.507 9.09652 63.5646 9.75117C63.5169 9.78426 63.4661 9.81127 63.413 9.83212Z" fill="gray"/><path d="M67.9144 1.79009C67.859 1.73471 67.7838 1.70361 67.7057 1.70361L67.6998 1.70367C66.7494 1.72231 64.4045 1.90008 63.1591 3.14545C62.5938 3.71077 62.4101 4.00504 62.0074 4.64993C61.7174 5.11424 61.3203 5.75021 60.5947 6.79467C60.5131 6.91206 60.5273 7.07096 60.6284 7.17197L62.5322 9.07585C62.5894 9.133 62.665 9.16238 62.7412 9.16238C62.7997 9.16238 62.8585 9.14504 62.9095 9.1096C63.9544 8.38378 64.5901 7.98681 65.0542 7.6969C65.6991 7.29422 65.9934 7.11043 66.5588 6.54506C67.8064 5.29748 67.9829 2.95409 68.0008 2.00446C68.0024 1.92428 67.9712 1.84688 67.9144 1.79009ZM65.7098 5.38238C65.3265 5.76565 64.7052 5.76565 64.3219 5.38238C63.9385 4.99909 63.9386 4.37776 64.3219 3.99449C64.7052 3.61119 65.3265 3.61114 65.7098 3.99441C66.093 4.37767 66.0931 4.99914 65.7098 5.38238Z" fill="gray"/><path d="M59.7096 8.22607C59.744 8.28467 59.784 8.33543 59.8241 8.37552L61.1791 9.73052C61.2408 9.79216 61.3277 9.8538 61.4294 9.89477L55.5811 15.4507C54.8228 16.1711 53.8168 16.5727 52.771 16.5727H51L59.7096 8.22607Z" fill="#C4AB54"/></svg>