<svg width="12" height="12" viewBox="0 0 12 12" xmlns="http://www.w3.org/2000/svg"><path d="M11.7399 5.423L5.90311 0.357128C5.8583 0.318504 5.80114 0.296875 5.74089 0.296875H4.37361C4.25929 0.296875 4.20676 0.43901 4.29328 0.513167L9.70367 5.2098H0.662658C0.59468 5.2098 0.539062 5.26541 0.539062 5.33339V6.26036C0.539062 6.32834 0.59468 6.38395 0.662658 6.38395H9.70212L4.29173 11.0806C4.20521 11.1563 4.25774 11.2969 4.37207 11.2969H5.78569C5.81505 11.2969 5.8444 11.2861 5.86603 11.266L11.7399 6.17075C11.7934 6.12424 11.8363 6.0668 11.8657 6.0023C11.895 5.9378 11.9103 5.86775 11.9103 5.79688C11.9103 5.726 11.895 5.65595 11.8657 5.59145C11.8363 5.52695 11.7934 5.46951 11.7399 5.423Z"/></svg>