<svg width="28" height="25" viewBox="0 0 28 25" xmlns="http://www.w3.org/2000/svg"><g filter="url(#filter0_d)"><path fill-rule="evenodd" clip-rule="evenodd" d="M13.5788 10.37L14.7475 8.01634C15.0378 7.43353 15.5411 6.59549 16.2535 5.91795C16.9542 5.25094 17.7935 4.79705 18.808 4.79705C20.999 4.79705 22.7298 6.54155 22.7298 8.63862C22.7298 10.2318 22.0056 11.3567 20.2878 13.0722C19.8472 13.5116 19.3453 13.9866 18.7897 14.5102C17.3412 15.8784 15.5398 17.5808 13.5788 19.8568C11.6179 17.5808 9.81649 15.8784 8.36803 14.5102C7.81243 13.9866 7.30913 13.5103 6.86988 13.0722C5.15212 11.3567 4.42789 10.2318 4.42789 8.63862C4.42789 6.54155 6.15872 4.79705 8.34972 4.79705C9.36417 4.79705 10.2034 5.25094 10.9041 5.91795C11.6166 6.59549 12.1199 7.43353 12.4101 8.01634L13.5788 10.37ZM14.0913 21.279C14.0283 21.354 13.9499 21.4143 13.8614 21.4557C13.7729 21.4971 13.6764 21.5185 13.5788 21.5185C13.4812 21.5185 13.3848 21.4971 13.2963 21.4557C13.2078 21.4143 13.1293 21.354 13.0664 21.279C10.9734 18.7767 9.07919 16.9875 7.5196 15.5153C4.82007 12.9643 3.12061 11.3606 3.12061 8.63862C3.12061 5.79033 5.46064 3.48145 8.34972 3.48145C10.4414 3.48145 11.9042 4.86283 12.7997 6.12318C13.1396 6.60338 13.3984 7.06516 13.5788 7.42826C13.805 6.97382 14.0655 6.53751 14.358 6.12318C15.2535 4.86152 16.7163 3.48145 18.808 3.48145C21.697 3.48145 24.0371 5.79033 24.0371 8.63862C24.0371 11.3606 22.3376 12.9643 19.6381 15.5153C18.0785 16.9888 16.1843 18.778 14.0913 21.2777V21.279Z"/></g><defs><filter id="filter0_d" x="2.121" y="1.481" width="24.916" height="22.037" filterUnits="userSpaceOnUse" color-interpolation-filters="sRGB"><feFlood flood-opacity="0" result="BackgroundImageFix"/><feColorMatrix in="SourceAlpha" values="0 0 0 0 0 0 0 0 0 0 0 0 0 0 0 0 0 0 127 0"/><feOffset dx="1"/><feGaussianBlur stdDeviation="1"/><feColorMatrix values="0 0 0 0 0 0 0 0 0 0 0 0 0 0 0 0 0 0 0.15 0"/><feBlend in2="BackgroundImageFix" result="effect1_dropShadow"/><feBlend in="SourceGraphic" in2="effect1_dropShadow" result="shape"/></filter></defs></svg>