<svg xmlns="http://www.w3.org/2000/svg" viewBox="0 0 20.59 21.15"><g id="Слой_2" data-name="Слой 2"><path d="M10.29,7.05a3.53,3.53,0,1,0,3.44,3.52A3.48,3.48,0,0,0,10.29,7.05Zm10.3,3.52c0-1.46,0-2.9-.07-4.36a6.35,6.35,0,0,0-1.66-4.43A6,6,0,0,0,14.55.07C13.12,0,11.72,0,10.3,0S7.47,0,6.05.07A6,6,0,0,0,1.73,1.78,6.36,6.36,0,0,0,.07,6.21C0,7.67,0,9.12,0,10.57s0,2.91.07,4.37a6.36,6.36,0,0,0,1.66,4.43,6,6,0,0,0,4.32,1.71c1.42.08,2.83.07,4.25.07s2.83,0,4.25-.07a6,6,0,0,0,4.31-1.71,6.36,6.36,0,0,0,1.66-4.43C20.61,13.48,20.59,12,20.59,10.57ZM10.29,16A5.35,5.35,0,0,1,5,10.57a5.34,5.34,0,0,1,5.28-5.42,5.35,5.35,0,0,1,5.29,5.42A5.35,5.35,0,0,1,10.29,16Zm5.5-9.81A1.27,1.27,0,1,1,17,4.93a1.33,1.33,0,0,1-.1.48,1.15,1.15,0,0,1-.26.41,1.42,1.42,0,0,1-.41.28A1.23,1.23,0,0,1,15.79,6.19Z" id="Слой_1-2" data-name="Слой 1"/></g></svg>