<svg width="25" height="25" viewBox="0 0 25 25" xmlns="http://www.w3.org/2000/svg"><path fill-rule="evenodd" clip-rule="evenodd" d="M12.5 25C19.4036 25 25 19.4036 25 12.5C25 5.59644 19.4036 0 12.5 0C5.59644 0 0 5.59644 0 12.5C0 19.4036 5.59644 25 12.5 25ZM8.70953 8.78778C8.69744 10.8655 10.3972 12.5853 12.47 12.5923C14.5639 12.5996 16.2754 10.919 16.2861 8.84543C16.2966 6.7229 14.613 5.00567 12.5155 5.00001C10.4223 4.9942 8.72146 6.68708 8.70953 8.78778ZM12.5005 6.9389C13.5293 6.93985 14.3503 7.76115 14.3539 8.7928C14.3573 9.8243 13.5385 10.6509 12.51 10.6546C11.4784 10.6583 10.6504 9.84284 10.6427 8.81511C10.6347 7.77403 11.463 6.9378 12.5005 6.9389ZM8.65569 14.4557C9.55264 15.1577 10.6003 15.4441 11.7622 15.5654C11.7307 15.5992 11.7035 15.6289 11.6787 15.6559L11.6787 15.6559C11.6391 15.6991 11.6059 15.7354 11.5712 15.7704L11.0737 16.2696C10.3875 16.9583 9.70116 17.6472 9.01328 18.3346C8.83668 18.511 8.71016 18.7077 8.6976 18.9651C8.67939 19.3458 8.91533 19.7245 9.2861 19.9044C9.6349 20.0739 9.9928 20.0205 10.2936 19.7238C10.9634 19.0629 11.6293 18.3982 12.2845 17.7231C12.4484 17.5544 12.5377 17.5177 12.7234 17.712C13.1524 18.1613 13.5929 18.5995 14.0334 19.0378C14.2481 19.2514 14.4629 19.465 14.6763 19.6799C14.8463 19.8513 15.0377 19.9735 15.283 19.9905C15.6703 20.0171 16.0652 19.769 16.2417 19.392C16.403 19.047 16.3418 18.6792 16.0487 18.3826C15.502 17.8294 14.9526 17.2787 14.4032 16.728L14.4029 16.7277C14.088 16.412 13.7731 16.0963 13.4586 15.7802C13.4139 15.7352 13.3774 15.6952 13.322 15.6344L13.2576 15.564C13.8932 15.488 14.5353 15.3734 15.1216 15.146C15.7417 14.9053 16.2997 14.5605 16.7638 14.0838C17.0662 13.7729 17.0694 13.3821 16.8239 12.9816C16.609 12.631 16.2355 12.4838 15.8351 12.5867C15.6291 12.6398 15.4514 12.7438 15.2852 12.8714C13.6073 14.0009 11.3109 13.9692 9.63929 12.8197C9.55735 12.7628 9.4718 12.7099 9.38201 12.6674C8.91831 12.4486 8.47219 12.5506 8.20643 12.9317C7.89577 13.3771 7.93533 13.8092 8.32793 14.1866C8.40913 14.2646 8.49887 14.334 8.58847 14.4034L8.58848 14.4034C8.61094 14.4208 8.63338 14.4382 8.65569 14.4557Z"/></svg>