<svg width="18" height="17" viewBox="0 0 18 17" fill="none" xmlns="http://www.w3.org/2000/svg"><path d="M0 8.08715C0 6.67207 0 5.25742 0 3.84234C0.159826 3.48317 0.446896 3.37857 0.832151 3.38722C1.65197 3.40537 2.47224 3.39283 3.2925 3.39283C3.35458 3.39283 3.41666 3.39283 3.49768 3.39283C3.46862 3.32411 3.44968 3.27743 3.42943 3.23118C3.22778 2.76785 3.17186 2.28852 3.2903 1.79795C3.60291 0.505619 4.84629 -0.223964 6.21912 0.0608672C7.02001 0.227271 7.66944 0.639607 8.19162 1.23909C8.49763 1.59049 8.75476 1.98251 9.01145 2.32612C9.26593 1.98337 9.51558 1.59178 9.82026 1.24774C10.4974 0.483144 11.3375 0.0180777 12.3999 0.00338225C13.9321 -0.0177964 15.076 1.36487 14.7256 2.82706C14.6806 3.01464 14.6032 3.19445 14.5358 3.39197C14.6032 3.39197 14.6657 3.39197 14.7286 3.39197C15.6013 3.39197 16.4744 3.38981 17.347 3.39327C17.7415 3.39456 17.9978 3.64525 17.9987 4.03079C18.0013 5.32442 18.0013 6.61848 17.9987 7.9121C17.9978 8.30758 17.7455 8.55308 17.3387 8.56302C17.1881 8.56648 17.0375 8.56346 16.8707 8.56346C16.8707 8.65076 16.8707 8.71819 16.8707 8.78562C16.8707 10.5508 16.8707 12.3164 16.8707 14.0816C16.8707 14.8349 16.8724 15.5883 16.8698 16.3416C16.8684 16.6619 16.7047 16.8979 16.426 16.971C16.3207 16.9986 16.2058 16.9978 16.0953 16.9978C11.3741 16.9991 6.65237 16.9986 1.93112 16.9986C1.86067 16.9986 1.79023 16.9999 1.72066 16.9934C1.45472 16.9697 1.27156 16.8322 1.19187 16.5837C1.15929 16.4825 1.15709 16.3689 1.15709 16.2613C1.15533 13.7712 1.15577 11.2812 1.15577 8.79167C1.15577 8.71949 1.15577 8.64687 1.15577 8.56173C0.682452 8.56907 0.198571 8.64514 0 8.08715ZM8.38359 15.7819C8.38359 13.3671 8.38359 10.9726 8.38359 8.57469C6.38247 8.57469 4.39367 8.57469 2.40267 8.57469C2.40267 10.9834 2.40267 13.3827 2.40267 15.7819C4.40203 15.7819 6.38687 15.7819 8.38359 15.7819ZM9.64106 8.57469C9.64106 10.986 9.64106 13.381 9.64106 15.7785C11.6413 15.7785 13.6297 15.7785 15.6273 15.7785C15.6273 13.3736 15.6273 10.9791 15.6273 8.57469C13.6288 8.57469 11.64 8.57469 9.64106 8.57469ZM8.38095 7.34503C8.38095 6.42095 8.38095 5.51675 8.38095 4.61558C5.99149 4.61558 3.617 4.61558 1.24691 4.61558C1.24691 5.53274 1.24691 6.43694 1.24691 7.34503C3.63064 7.34503 6.00029 7.34503 8.38095 7.34503ZM9.63666 7.33812C12.0226 7.33812 14.39 7.33812 16.7579 7.33812C16.7579 6.42225 16.7579 5.52151 16.7579 4.61428C14.3808 4.61428 12.0125 4.61428 9.63666 4.61428C9.63666 5.52669 9.63666 6.42743 9.63666 7.33812ZM9.88146 3.38808C10.792 3.38808 11.6576 3.38808 12.5232 3.38765C12.558 3.38765 12.5932 3.38073 12.6276 3.37468C13.0802 3.29775 13.3791 3.04447 13.5046 2.61138C13.6297 2.18046 13.5152 1.804 13.1819 1.50102C12.8156 1.16864 12.3775 1.15438 11.931 1.28361C10.8541 1.59567 10.3596 2.45838 9.88146 3.38808ZM8.12822 3.39111C7.77819 2.65245 7.37224 1.98942 6.68274 1.54165C6.36485 1.33548 6.01218 1.22224 5.62649 1.21619C5.00083 1.20624 4.49053 1.66829 4.46588 2.2695C4.44122 2.87763 4.90705 3.37641 5.54723 3.38765C6.39567 3.40234 7.24412 3.39111 8.12822 3.39111Z" fill="#000"/></svg>