<svg xmlns="http://www.w3.org/2000/svg" viewBox="0 0 21 21"><defs><clipPath id="clip-path"><path fill="none" d="M0 0H21V21H0z"/></clipPath></defs><g id="Слой_2" data-name="Слой 2"><g clip-path="url(#clip-path)" id="Слой_1-2" data-name="Слой 1"><path d="M21,10.5a10.52,10.52,0,1,1-3.08-7.42A10.48,10.48,0,0,1,21,10.5ZM10.88,7.75c-1,.43-3.07,1.31-6.13,2.64-.49.2-.75.39-.78.58s.36.44.91.62l.23.07A7.08,7.08,0,0,0,6.74,12a2,2,0,0,0,1.14-.42c2.86-1.93,4.33-2.9,4.43-2.92a.2.2,0,0,1,.21,0,.18.18,0,0,1,.05.18,30.39,30.39,0,0,1-2.42,2.39l-.47.44L9.43,12c-.5.48-.87.84,0,1.43l1.12.75c.37.26.74.51,1.23.83l.35.24a2,2,0,0,0,1.31.55c.28,0,.57-.29.72-1.08.35-1.86,1-5.89,1.19-7.55a1.85,1.85,0,0,0,0-.41.48.48,0,0,0-.15-.29.73.73,0,0,0-.41-.12C14.4,6.33,13.79,6.54,10.88,7.75Z"/></g></g></svg>