<svg xmlns="http://www.w3.org/2000/svg" style="border: 0 !important; clip: rect(0 0 0 0) !important; height: 1px !important; margin: -1px !important; overflow: hidden !important; padding: 0 !important; position: absolute !important; width: 1px !important;" class="root-svg-symbols-element">
  <defs>
      <filter id="filter0_d" x="2.121" y="1.481" width="24.916" height="22.037" filterUnits="userSpaceOnUse" color-interpolation-filters="sRGB"><feFlood flood-opacity="0" result="BackgroundImageFix"/><feColorMatrix in="SourceAlpha" values="0 0 0 0 0 0 0 0 0 0 0 0 0 0 0 0 0 0 127 0"/><feOffset dx="1"/><feGaussianBlur stdDeviation="1"/><feColorMatrix values="0 0 0 0 0 0 0 0 0 0 0 0 0 0 0 0 0 0 0.15 0"/><feBlend in2="BackgroundImageFix" result="effect1_dropShadow"/><feBlend in="SourceGraphic" in2="effect1_dropShadow" result="shape"/></filter>
<clipPath id="clip0"><path fill="#fff" transform="translate(.502 .103)" d="M0 0H16V16.078H0z"/></clipPath>
<clipPath id="clip123"><path fill="#fff" transform="translate(4.5 5)" d="M0 0H14V14H0z"/></clipPath>
<clipPath id="clip-path"><path fill="none" d="M0 0H21V21H0z"/></clipPath>
  </defs>
    <symbol id="aero" viewBox="0 0 127 17">
      <path d="M52.1242 8.5C52.1242 9.89072 52.4095 11.165 52.9802 12.3228L56.0354 9.39485C55.9951 9.10663 55.975 8.80834 55.975 8.5C55.975 7.4825 56.1942 6.57459 56.6325 5.77624C57.0864 4.9779 57.7047 4.35958 58.4874 3.92127C59.2701 3.46731 60.1467 3.24033 61.1173 3.24033C61.1434 3.24033 61.1695 3.2405 61.1955 3.24083C61.3674 3.04216 61.5649 2.83169 61.8073 2.58927C62.6955 1.70105 63.9422 1.16095 65.1757 0.833531C63.9529 0.277844 62.6001 0 61.1173 0C59.411 0 57.8691 0.367864 56.4916 1.10359C55.1297 1.83932 54.0574 2.85681 53.2747 4.15608C52.5077 5.43969 52.1242 6.88766 52.1242 8.5Z" fill="gray"/><path d="M68.9532 4.18384C68.6373 5.52404 68.0822 6.92127 67.1108 7.89266C66.7849 8.21857 66.5167 8.46319 66.2573 8.67381C66.2328 9.62117 66.0065 10.4712 65.5786 11.2238C65.1403 12.0221 64.5298 12.6482 63.7471 13.1022C62.9644 13.5405 62.0878 13.7597 61.1173 13.7597C60.7125 13.7597 60.3242 13.7216 59.9521 13.6453L57.2933 16.1713C57.2678 16.1954 57.2422 16.2194 57.2165 16.2432C58.404 16.7477 59.7043 17 61.1173 17C62.8235 17 64.3576 16.6321 65.7195 15.8964C67.0814 15.1607 68.1536 14.151 68.9363 12.8674C69.719 11.5681 70.1104 10.1123 70.1104 8.5C70.1104 6.89928 69.7246 5.46056 68.9532 4.18384Z" fill="gray"/><path fill-rule="evenodd" clip-rule="evenodd" d="M46.7623 11.4351L49.6252 15.5379L48.3936 16.7182H46.3631L43.1933 12.1395H39.6946V16.7182H35.8908V0.281767H43.0054C44.4612 0.281767 45.7213 0.524401 46.7858 1.00967C47.8659 1.49494 48.6956 2.1837 49.2747 3.07597C49.8539 3.96823 50.1435 5.02486 50.1435 6.24586C50.1435 7.46685 49.8461 8.52348 49.2513 9.41575C48.6721 10.2924 47.8424 10.9655 46.7623 11.4351ZM46.2927 6.24586C46.2927 5.32228 45.9953 4.61786 45.4004 4.1326C44.8056 3.63168 43.9368 3.38122 42.7941 3.38122H39.6946V9.1105H42.7941C43.9368 9.1105 44.8056 8.86004 45.4004 8.35912C45.9953 7.8582 46.2927 7.15378 46.2927 6.24586Z" fill="gray"/><path fill-rule="evenodd" clip-rule="evenodd" d="M5.35359 13.1961H12.9848L14.4406 16.7182H18.4323L11.0829 0.281767H7.32597L0 16.7182H3.89779L5.35359 13.1961ZM9.18094 4.01519L11.7873 10.308H6.57459L9.18094 4.01519Z" fill="gray"/><path d="M32.8641 16.7182V13.6657H23.918V9.86188H31.5492V6.90332H23.918V3.33425H32.5589V0.281767H20.1376V16.7182H32.8641Z" fill="gray"/><path d="M78.9567 10.2611L76.7495 12.5622V16.7182H72.9691V0.281767H76.7495V7.95994L84.0285 0.281767H88.2551L81.4457 7.60773L88.6542 16.7182H84.2164L78.9567 10.2611Z" fill="gray"/><path fill-rule="evenodd" clip-rule="evenodd" d="M93.0884 15.8964C94.4659 16.6321 96.0078 17 97.7141 17C99.4204 17 100.954 16.6321 102.316 15.8964C103.678 15.1607 104.75 14.151 105.533 12.8674C106.316 11.5681 106.707 10.1123 106.707 8.5C106.707 6.88766 106.316 5.43969 105.533 4.15608C104.75 2.85681 103.678 1.83932 102.316 1.10359C100.954 0.367864 99.4204 0 97.7141 0C96.0078 0 94.4659 0.367864 93.0884 1.10359C91.7265 1.83932 90.6543 2.85681 89.8716 4.15608C89.1045 5.43969 88.721 6.88766 88.721 8.5C88.721 10.1123 89.1045 11.5681 89.8716 12.8674C90.6543 14.151 91.7265 15.1607 93.0884 15.8964ZM100.344 13.1022C99.5612 13.5405 98.6846 13.7597 97.7141 13.7597C96.7436 13.7597 95.867 13.5405 95.0843 13.1022C94.3016 12.6482 93.6832 12.0221 93.2293 11.2238C92.791 10.4254 92.5718 9.5175 92.5718 8.5C92.5718 7.4825 92.791 6.57459 93.2293 5.77624C93.6832 4.9779 94.3016 4.35958 95.0843 3.92127C95.867 3.46731 96.7436 3.24033 97.7141 3.24033C98.6846 3.24033 99.5612 3.46731 100.344 3.92127C101.127 4.35958 101.737 4.9779 102.175 5.77624C102.629 6.57459 102.856 7.4825 102.856 8.5C102.856 9.5175 102.629 10.4254 102.175 11.2238C101.737 12.0221 101.127 12.6482 100.344 13.1022Z" fill="gray"/><path fill-rule="evenodd" clip-rule="evenodd" d="M109.566 0.281767H117.033C118.817 0.281767 120.391 0.62615 121.752 1.31492C123.13 1.98803 124.194 2.94291 124.946 4.17956C125.713 5.41621 126.096 6.85635 126.096 8.5C126.096 10.1436 125.713 11.5838 124.946 12.8204C124.194 14.0571 123.13 15.0198 121.752 15.7086C120.391 16.3817 118.817 16.7182 117.033 16.7182H109.566V0.281767ZM116.845 13.5953C118.489 13.5953 119.796 13.1413 120.766 12.2334C121.752 11.3099 122.246 10.0654 122.246 8.5C122.246 6.93462 121.752 5.69797 120.766 4.79006C119.796 3.86648 118.489 3.4047 116.845 3.4047H113.37V13.5953H116.845Z" fill="gray"/><path d="M59.9531 6.13971C60.6076 5.19761 60.9926 4.59067 61.2733 4.14214C60.1946 4.23754 59.1606 5.57975 59.1606 5.57975L59.8726 6.2917C59.8933 6.23906 59.9197 6.18793 59.9531 6.13971Z" fill="gray"/><path d="M63.413 9.83212L64.1245 10.5436C64.1245 10.5436 65.4667 9.50976 65.5621 8.43111C65.1137 8.71168 64.507 9.09652 63.5646 9.75117C63.5169 9.78426 63.4661 9.81127 63.413 9.83212Z" fill="gray"/><path d="M67.9144 1.79009C67.859 1.73471 67.7838 1.70361 67.7057 1.70361L67.6998 1.70367C66.7494 1.72231 64.4045 1.90008 63.1591 3.14545C62.5938 3.71077 62.4101 4.00504 62.0074 4.64993C61.7174 5.11424 61.3203 5.75021 60.5947 6.79467C60.5131 6.91206 60.5273 7.07096 60.6284 7.17197L62.5322 9.07585C62.5894 9.133 62.665 9.16238 62.7412 9.16238C62.7997 9.16238 62.8585 9.14504 62.9095 9.1096C63.9544 8.38378 64.5901 7.98681 65.0542 7.6969C65.6991 7.29422 65.9934 7.11043 66.5588 6.54506C67.8064 5.29748 67.9829 2.95409 68.0008 2.00446C68.0024 1.92428 67.9712 1.84688 67.9144 1.79009ZM65.7098 5.38238C65.3265 5.76565 64.7052 5.76565 64.3219 5.38238C63.9385 4.99909 63.9386 4.37776 64.3219 3.99449C64.7052 3.61119 65.3265 3.61114 65.7098 3.99441C66.093 4.37767 66.0931 4.99914 65.7098 5.38238Z" fill="gray"/><path d="M59.7096 8.22607C59.744 8.28467 59.784 8.33543 59.8241 8.37552L61.1791 9.73052C61.2408 9.79216 61.3277 9.8538 61.4294 9.89477L55.5811 15.4507C54.8228 16.1711 53.8168 16.5727 52.771 16.5727H51L59.7096 8.22607Z" fill="#C4AB54"/>
    </symbol>
    <symbol id="arrow-slide" viewBox="0 0 9 18">
      <path d="M0 15.0714L5.625 9L0 2.92857L1.125 0.5L9 9L1.125 17.5L0 15.0714Z" fill="#C4AB54"/>
    </symbol>
    <symbol id="build-arr" viewBox="0 0 12 12">
      <path d="M11.7399 5.423L5.90311 0.357128C5.8583 0.318504 5.80114 0.296875 5.74089 0.296875H4.37361C4.25929 0.296875 4.20676 0.43901 4.29328 0.513167L9.70367 5.2098H0.662658C0.59468 5.2098 0.539062 5.26541 0.539062 5.33339V6.26036C0.539062 6.32834 0.59468 6.38395 0.662658 6.38395H9.70212L4.29173 11.0806C4.20521 11.1563 4.25774 11.2969 4.37207 11.2969H5.78569C5.81505 11.2969 5.8444 11.2861 5.86603 11.266L11.7399 6.17075C11.7934 6.12424 11.8363 6.0668 11.8657 6.0023C11.895 5.9378 11.9103 5.86775 11.9103 5.79688C11.9103 5.726 11.895 5.65595 11.8657 5.59145C11.8363 5.52695 11.7934 5.46951 11.7399 5.423Z"/>
    </symbol>
    <symbol id="check" viewBox="0 0 23 18">
      <path d="M7.89725 12.9849L2.82054 8.1826L0.640625 10.2447L7.89725 17.1091L22.8622 2.95302L20.6823 0.890938L7.89725 12.9849Z" fill="#E4BB9B"/>
    </symbol>
    <symbol id="close" viewBox="0 0 26 26">
      <path d="M0.5 1L25 25.5M0.5 25.5L25 1" stroke="#CBA470"/>
    </symbol>
    <symbol id="design" viewBox="0 0 107 33">
      <path fill="gray" d="M102.353 13.9269C104.863 13.9269 106.898 11.943 106.898 9.49572C106.898 7.04847 104.863 5.06458 102.353 5.06458C99.8426 5.06458 97.8076 7.04847 97.8076 9.49572C97.8076 11.943 99.8426 13.9269 102.353 13.9269Z"/><path fill="gray" d="M96.2712 17.83C97.7063 17.83 98.8696 16.6958 98.8696 15.2968C98.8696 13.8978 97.7063 12.7637 96.2712 12.7637C94.8362 12.7637 93.6729 13.8978 93.6729 15.2968C93.6729 16.6958 94.8362 17.83 96.2712 17.83Z"/><path fill="gray" d="M100.009 20.4929C100.8 20.4929 101.44 19.8683 101.44 19.0978C101.44 18.3273 100.8 17.7026 100.009 17.7026C99.2188 17.7026 98.5781 18.3273 98.5781 19.0978C98.5781 19.8683 99.2188 20.4929 100.009 20.4929Z"/><path fill="gray" d="M63.2549 32.4795L69.2166 17.6866H73.5517L79.5128 32.4795H75.3945L74.5267 30.1549H68.2409L67.3734 32.4795H63.2549ZM69.4334 26.9849H73.3345L71.7742 22.7164C71.6447 22.3569 71.514 21.9975 71.3833 21.2158C71.254 21.9975 71.1236 22.3569 70.9941 22.7164L69.4334 26.9849Z"/><path fill="gray" d="M16.9769 17.6989V32.4783H12.9703V24.624L9.72186 29.4803H7.42622L4.17721 24.6031V32.4783H0.170898V17.6989H3.96092L8.57448 24.624L13.1869 17.6989H16.9769Z"/><path fill="gray" d="M87.7312 17.6477C91.0613 17.6477 93.0639 18.8357 93.0639 21.4034C93.0639 23.0371 92.2591 24.1194 90.8005 24.6286C92.4326 25.0951 93.6729 26.2411 93.6729 28.2991C93.6729 31.6728 90.3653 32.5003 87.4697 32.5003H80.8545V17.6477H87.7312ZM87.6016 26.3254H84.859V29.4234H87.6016C88.8199 29.4234 89.6256 29.0411 89.6256 27.8746C89.6256 26.7077 88.8199 26.3254 87.6016 26.3254ZM87.3619 20.724H84.8804V23.4611L87.3619 23.4823C88.4284 23.4823 89.038 22.952 89.038 22.1034C89.038 21.2548 88.4281 20.724 87.3619 20.724Z"/><path fill="gray" d="M57.713 28.5344C54.8667 28.5344 53.9418 26.6638 53.9418 24.4004C53.9418 24.3593 53.9418 17.7258 53.9418 17.7258H49.917L49.9343 25.0501H49.9416C49.9416 29.3001 52.9134 32.4547 56.7198 32.4547C59.3976 32.4547 60.023 32.4798 61.9233 32.4798V28.5344C60.6355 28.5344 57.8004 28.5344 57.713 28.5344Z"/><path fill="gray" d="M26.8491 17.3838C32.2759 17.3838 34.9889 20.9812 34.9889 25.1078C34.9889 29.2344 32.2756 32.8318 26.8491 32.8318C21.4225 32.8318 18.709 29.2344 18.709 25.1078C18.709 20.9812 21.4225 17.3838 26.8491 17.3838ZM26.8491 20.9812C24.2226 20.9812 22.8334 22.7378 22.8334 25.1078C22.8334 27.4778 24.2226 29.2344 26.8491 29.2344C29.4753 29.2344 30.8651 27.4781 30.8651 25.1078C30.8651 22.7378 29.4753 20.9812 26.8491 20.9812Z"/><path fill="gray" d="M41.8945 17.3838C43.7825 17.3838 45.6714 17.8281 46.9955 18.5686V22.1661C45.693 21.2138 43.978 20.7484 42.2201 20.7695C40.7442 20.7906 40.2879 21.1715 40.2879 21.7218C40.2879 23.6475 48.1891 23.0552 48.1891 28.3029C48.1891 31.8155 45.4325 32.8315 42.1114 32.8315C39.9195 32.8315 37.8785 32.3446 36.2719 31.4772V27.7741C38.074 28.9804 40.071 29.4458 41.8075 29.4458C43.3921 29.4458 44.065 29.1918 44.065 28.4512C44.065 26.3138 36.1641 27.0332 36.1641 21.7429C36.1641 18.7804 38.7689 17.3838 41.8945 17.3838Z"/>
    </symbol>
    <symbol id="favourite" viewBox="0 0 28 25">
      <g filter="url(#filter0_d)"><path fill-rule="evenodd" clip-rule="evenodd" d="M13.5788 10.37L14.7475 8.01634C15.0378 7.43353 15.5411 6.59549 16.2535 5.91795C16.9542 5.25094 17.7935 4.79705 18.808 4.79705C20.999 4.79705 22.7298 6.54155 22.7298 8.63862C22.7298 10.2318 22.0056 11.3567 20.2878 13.0722C19.8472 13.5116 19.3453 13.9866 18.7897 14.5102C17.3412 15.8784 15.5398 17.5808 13.5788 19.8568C11.6179 17.5808 9.81649 15.8784 8.36803 14.5102C7.81243 13.9866 7.30913 13.5103 6.86988 13.0722C5.15212 11.3567 4.42789 10.2318 4.42789 8.63862C4.42789 6.54155 6.15872 4.79705 8.34972 4.79705C9.36417 4.79705 10.2034 5.25094 10.9041 5.91795C11.6166 6.59549 12.1199 7.43353 12.4101 8.01634L13.5788 10.37ZM14.0913 21.279C14.0283 21.354 13.9499 21.4143 13.8614 21.4557C13.7729 21.4971 13.6764 21.5185 13.5788 21.5185C13.4812 21.5185 13.3848 21.4971 13.2963 21.4557C13.2078 21.4143 13.1293 21.354 13.0664 21.279C10.9734 18.7767 9.07919 16.9875 7.5196 15.5153C4.82007 12.9643 3.12061 11.3606 3.12061 8.63862C3.12061 5.79033 5.46064 3.48145 8.34972 3.48145C10.4414 3.48145 11.9042 4.86283 12.7997 6.12318C13.1396 6.60338 13.3984 7.06516 13.5788 7.42826C13.805 6.97382 14.0655 6.53751 14.358 6.12318C15.2535 4.86152 16.7163 3.48145 18.808 3.48145C21.697 3.48145 24.0371 5.79033 24.0371 8.63862C24.0371 11.3606 22.3376 12.9643 19.6381 15.5153C18.0785 16.9888 16.1843 18.778 14.0913 21.2777V21.279Z"/></g>
    </symbol>
    <symbol id="fb" viewBox="0 0 21.15 21.15">
      <g id="&#x421;&#x43B;&#x43E;&#x439;_2" data-name="&#x421;&#x43B;&#x43E;&#x439; 2"><path d="M3.86,0A3.85,3.85,0,0,0,0,3.86V17.29a3.85,3.85,0,0,0,3.86,3.86h7.28V12.88H9v-3h2.19V7.36c0-2,1.29-3.83,4.27-3.83a18.9,18.9,0,0,1,2.09.11l-.07,2.78h-1.9c-1.07,0-1.24.49-1.24,1.31V9.9h3.23l-.14,3H14.29v8.27h3a3.85,3.85,0,0,0,3.86-3.86V3.86A3.85,3.85,0,0,0,17.29,0Z" id="&#x421;&#x43B;&#x43E;&#x439;_1-2" data-name="&#x421;&#x43B;&#x43E;&#x439; 1"/></g>
    </symbol>
    <symbol id="inst" viewBox="0 0 20.59 21.15">
      <g id="&#x421;&#x43B;&#x43E;&#x439;_2" data-name="&#x421;&#x43B;&#x43E;&#x439; 2"><path d="M10.29,7.05a3.53,3.53,0,1,0,3.44,3.52A3.48,3.48,0,0,0,10.29,7.05Zm10.3,3.52c0-1.46,0-2.9-.07-4.36a6.35,6.35,0,0,0-1.66-4.43A6,6,0,0,0,14.55.07C13.12,0,11.72,0,10.3,0S7.47,0,6.05.07A6,6,0,0,0,1.73,1.78,6.36,6.36,0,0,0,.07,6.21C0,7.67,0,9.12,0,10.57s0,2.91.07,4.37a6.36,6.36,0,0,0,1.66,4.43,6,6,0,0,0,4.32,1.71c1.42.08,2.83.07,4.25.07s2.83,0,4.25-.07a6,6,0,0,0,4.31-1.71,6.36,6.36,0,0,0,1.66-4.43C20.61,13.48,20.59,12,20.59,10.57ZM10.29,16A5.35,5.35,0,0,1,5,10.57a5.34,5.34,0,0,1,5.28-5.42,5.35,5.35,0,0,1,5.29,5.42A5.35,5.35,0,0,1,10.29,16Zm5.5-9.81A1.27,1.27,0,1,1,17,4.93a1.33,1.33,0,0,1-.1.48,1.15,1.15,0,0,1-.26.41,1.42,1.42,0,0,1-.41.28A1.23,1.23,0,0,1,15.79,6.19Z" id="&#x421;&#x43B;&#x43E;&#x439;_1-2" data-name="&#x421;&#x43B;&#x43E;&#x439; 1"/></g>
    </symbol>
    <symbol id="more-open" viewBox="0 0 21 20">
      <path fill="#114034" d="M8.039 7.502H12.872V12.497H8.039z"/><path fill="#114034" d="M15.289 15.005H20.122V20H15.289z"/><path fill="#114034" d="M0.789 0H5.622V4.995H0.789z"/><path fill="#114034" d="M0.789 15.005H5.622V20H0.789z"/><path fill="#114034" d="M15.289 0H20.122V4.995H15.289z"/>
    </symbol>
    <symbol id="more" viewBox="0 0 20 20">
      <path fill-rule="evenodd" clip-rule="evenodd" d="M14.8418 15H19.6751V20H14.8418V15ZM7.5918 15H12.4251V20H7.5918V15ZM0.341797 15H5.17513V20H0.341797V15ZM14.8418 7.5H19.6751V12.5H14.8418V7.5ZM7.5918 7.5H12.4251V12.5H7.5918V7.5ZM0.341797 7.5H5.17513V12.5H0.341797V7.5ZM14.8418 0H19.6751V5H14.8418V0ZM7.5918 0H12.4251V5H7.5918V0ZM0.341797 0H5.17513V5H0.341797V0Z" fill="#114034"/>
    </symbol>
    <symbol id="nav" viewBox="0 0 8 14">
      <path d="M0.500001 2.45797L4.875 7.10083L0.500001 11.7437L1.375 13.6008L7.5 7.10083L1.375 0.600831L0.500001 2.45797Z" fill="#C4AB54"/>
    </symbol>
    <symbol id="ok" viewBox="0 0 25 25">
      <path fill-rule="evenodd" clip-rule="evenodd" d="M12.5 25C19.4036 25 25 19.4036 25 12.5C25 5.59644 19.4036 0 12.5 0C5.59644 0 0 5.59644 0 12.5C0 19.4036 5.59644 25 12.5 25ZM8.70953 8.78778C8.69744 10.8655 10.3972 12.5853 12.47 12.5923C14.5639 12.5996 16.2754 10.919 16.2861 8.84543C16.2966 6.7229 14.613 5.00567 12.5155 5.00001C10.4223 4.9942 8.72146 6.68708 8.70953 8.78778ZM12.5005 6.9389C13.5293 6.93985 14.3503 7.76115 14.3539 8.7928C14.3573 9.8243 13.5385 10.6509 12.51 10.6546C11.4784 10.6583 10.6504 9.84284 10.6427 8.81511C10.6347 7.77403 11.463 6.9378 12.5005 6.9389ZM8.65569 14.4557C9.55264 15.1577 10.6003 15.4441 11.7622 15.5654C11.7307 15.5992 11.7035 15.6289 11.6787 15.6559L11.6787 15.6559C11.6391 15.6991 11.6059 15.7354 11.5712 15.7704L11.0737 16.2696C10.3875 16.9583 9.70116 17.6472 9.01328 18.3346C8.83668 18.511 8.71016 18.7077 8.6976 18.9651C8.67939 19.3458 8.91533 19.7245 9.2861 19.9044C9.6349 20.0739 9.9928 20.0205 10.2936 19.7238C10.9634 19.0629 11.6293 18.3982 12.2845 17.7231C12.4484 17.5544 12.5377 17.5177 12.7234 17.712C13.1524 18.1613 13.5929 18.5995 14.0334 19.0378C14.2481 19.2514 14.4629 19.465 14.6763 19.6799C14.8463 19.8513 15.0377 19.9735 15.283 19.9905C15.6703 20.0171 16.0652 19.769 16.2417 19.392C16.403 19.047 16.3418 18.6792 16.0487 18.3826C15.502 17.8294 14.9526 17.2787 14.4032 16.728L14.4029 16.7277C14.088 16.412 13.7731 16.0963 13.4586 15.7802C13.4139 15.7352 13.3774 15.6952 13.322 15.6344L13.2576 15.564C13.8932 15.488 14.5353 15.3734 15.1216 15.146C15.7417 14.9053 16.2997 14.5605 16.7638 14.0838C17.0662 13.7729 17.0694 13.3821 16.8239 12.9816C16.609 12.631 16.2355 12.4838 15.8351 12.5867C15.6291 12.6398 15.4514 12.7438 15.2852 12.8714C13.6073 14.0009 11.3109 13.9692 9.63929 12.8197C9.55735 12.7628 9.4718 12.7099 9.38201 12.6674C8.91831 12.4486 8.47219 12.5506 8.20643 12.9317C7.89577 13.3771 7.93533 13.8092 8.32793 14.1866C8.40913 14.2646 8.49887 14.334 8.58847 14.4034L8.58848 14.4034C8.61094 14.4208 8.63338 14.4382 8.65569 14.4557Z"/>
    </symbol>
    <symbol id="people" viewBox="0 0 17 17">
      <g clip-path="url(#clip0)"><path d="M8.50244 12.0919L3.50244 9.22079V12.3114L8.50244 15.1025L13.5024 12.3114V9.22079L8.50244 12.0919Z"/><path d="M16.5103 6.13259L8.50244 1.5343L0.494629 6.13259L8.50244 10.7309L15.0024 6.99836V12.1619H16.5024V6.13699L16.5103 6.13259Z"/></g>
    </symbol>
    <symbol id="present" viewBox="0 0 18 17">
      <path d="M0 8.08715C0 6.67207 0 5.25742 0 3.84234C0.159826 3.48317 0.446896 3.37857 0.832151 3.38722C1.65197 3.40537 2.47224 3.39283 3.2925 3.39283C3.35458 3.39283 3.41666 3.39283 3.49768 3.39283C3.46862 3.32411 3.44968 3.27743 3.42943 3.23118C3.22778 2.76785 3.17186 2.28852 3.2903 1.79795C3.60291 0.505619 4.84629 -0.223964 6.21912 0.0608672C7.02001 0.227271 7.66944 0.639607 8.19162 1.23909C8.49763 1.59049 8.75476 1.98251 9.01145 2.32612C9.26593 1.98337 9.51558 1.59178 9.82026 1.24774C10.4974 0.483144 11.3375 0.0180777 12.3999 0.00338225C13.9321 -0.0177964 15.076 1.36487 14.7256 2.82706C14.6806 3.01464 14.6032 3.19445 14.5358 3.39197C14.6032 3.39197 14.6657 3.39197 14.7286 3.39197C15.6013 3.39197 16.4744 3.38981 17.347 3.39327C17.7415 3.39456 17.9978 3.64525 17.9987 4.03079C18.0013 5.32442 18.0013 6.61848 17.9987 7.9121C17.9978 8.30758 17.7455 8.55308 17.3387 8.56302C17.1881 8.56648 17.0375 8.56346 16.8707 8.56346C16.8707 8.65076 16.8707 8.71819 16.8707 8.78562C16.8707 10.5508 16.8707 12.3164 16.8707 14.0816C16.8707 14.8349 16.8724 15.5883 16.8698 16.3416C16.8684 16.6619 16.7047 16.8979 16.426 16.971C16.3207 16.9986 16.2058 16.9978 16.0953 16.9978C11.3741 16.9991 6.65237 16.9986 1.93112 16.9986C1.86067 16.9986 1.79023 16.9999 1.72066 16.9934C1.45472 16.9697 1.27156 16.8322 1.19187 16.5837C1.15929 16.4825 1.15709 16.3689 1.15709 16.2613C1.15533 13.7712 1.15577 11.2812 1.15577 8.79167C1.15577 8.71949 1.15577 8.64687 1.15577 8.56173C0.682452 8.56907 0.198571 8.64514 0 8.08715ZM8.38359 15.7819C8.38359 13.3671 8.38359 10.9726 8.38359 8.57469C6.38247 8.57469 4.39367 8.57469 2.40267 8.57469C2.40267 10.9834 2.40267 13.3827 2.40267 15.7819C4.40203 15.7819 6.38687 15.7819 8.38359 15.7819ZM9.64106 8.57469C9.64106 10.986 9.64106 13.381 9.64106 15.7785C11.6413 15.7785 13.6297 15.7785 15.6273 15.7785C15.6273 13.3736 15.6273 10.9791 15.6273 8.57469C13.6288 8.57469 11.64 8.57469 9.64106 8.57469ZM8.38095 7.34503C8.38095 6.42095 8.38095 5.51675 8.38095 4.61558C5.99149 4.61558 3.617 4.61558 1.24691 4.61558C1.24691 5.53274 1.24691 6.43694 1.24691 7.34503C3.63064 7.34503 6.00029 7.34503 8.38095 7.34503ZM9.63666 7.33812C12.0226 7.33812 14.39 7.33812 16.7579 7.33812C16.7579 6.42225 16.7579 5.52151 16.7579 4.61428C14.3808 4.61428 12.0125 4.61428 9.63666 4.61428C9.63666 5.52669 9.63666 6.42743 9.63666 7.33812ZM9.88146 3.38808C10.792 3.38808 11.6576 3.38808 12.5232 3.38765C12.558 3.38765 12.5932 3.38073 12.6276 3.37468C13.0802 3.29775 13.3791 3.04447 13.5046 2.61138C13.6297 2.18046 13.5152 1.804 13.1819 1.50102C12.8156 1.16864 12.3775 1.15438 11.931 1.28361C10.8541 1.59567 10.3596 2.45838 9.88146 3.38808ZM8.12822 3.39111C7.77819 2.65245 7.37224 1.98942 6.68274 1.54165C6.36485 1.33548 6.01218 1.22224 5.62649 1.21619C5.00083 1.20624 4.49053 1.66829 4.46588 2.2695C4.44122 2.87763 4.90705 3.37641 5.54723 3.38765C6.39567 3.40234 7.24412 3.39111 8.12822 3.39111Z" fill="#000"/>
    </symbol>
    <symbol id="print" viewBox="0 0 30 29">
      <path d="M22.25 20.625H23.6094C24.2097 20.6233 24.7849 20.3922 25.2094 19.9824C25.6339 19.5725 25.8732 19.0171 25.875 18.4375V9.6875C25.8732 9.10787 25.6339 8.55248 25.2094 8.14262C24.7849 7.73276 24.2097 7.50173 23.6094 7.5H6.39062C5.7903 7.50173 5.21507 7.73276 4.79057 8.14262C4.36607 8.55248 4.12679 9.10787 4.125 9.6875V18.4375C4.12679 19.0171 4.36607 19.5725 4.79057 19.9824C5.21507 20.3922 5.7903 20.6233 6.39062 20.625H7.75" stroke="#1C1C1C" stroke-linejoin="round"/><path d="M20.8725 13.625H9.1275C8.36673 13.625 7.75 14.2205 7.75 14.955V23.67C7.75 24.4045 8.36673 25 9.1275 25H20.8725C21.6333 25 22.25 24.4045 22.25 23.67V14.955C22.25 14.2205 21.6333 13.625 20.8725 13.625Z" stroke="#1C1C1C" stroke-linejoin="round"/><path d="M22.25 7.5V6.1875C22.2482 5.60787 22.0089 5.05248 21.5844 4.64262C21.1599 4.23275 20.5847 4.00173 19.9844 4H10.0156C9.4153 4.00173 8.84007 4.23275 8.41557 4.64262C7.99107 5.05248 7.75179 5.60787 7.75 6.1875V7.5" stroke="#1C1C1C" stroke-linejoin="round"/><path d="M22.7031 11.875C23.4539 11.875 24.0625 11.2874 24.0625 10.5625C24.0625 9.83763 23.4539 9.25 22.7031 9.25C21.9524 9.25 21.3438 9.83763 21.3438 10.5625C21.3438 11.2874 21.9524 11.875 22.7031 11.875Z"/>
    </symbol>
    <symbol id="printer" viewBox="0 0 24 24">
      <path d="M0.145 0.5H23.145V23.5H0.145z"/><g clip-path="url(#clip123)" fill="#fff"><path d="M5.97656 16.1562H6.90625V17.7969C6.90625 18.4603 7.44596 19 8.10938 19H14.8906C15.554 19 16.0938 18.4603 16.0938 17.7969V16.1562H17.0234C17.8376 16.1562 18.5 15.4939 18.5 14.6797V9.53906C18.5 8.72488 17.8376 8.0625 17.0234 8.0625H16.0938V6.20312C16.0938 5.53971 15.554 5 14.8906 5H8.10938C7.44596 5 6.90625 5.53971 6.90625 6.20312V8.0625H5.97656C5.16238 8.0625 4.5 8.72488 4.5 9.53906V14.6797C4.5 15.4939 5.16238 16.1562 5.97656 16.1562ZM14.7812 17.6875H8.21875V13.3125H14.7812V17.6875ZM8.21875 6.3125H14.7812V8.0625H8.21875V6.3125ZM5.8125 9.53906C5.8125 9.44858 5.88608 9.375 5.97656 9.375H17.0234C17.1139 9.375 17.1875 9.44858 17.1875 9.53906V14.6797C17.1875 14.7702 17.1139 14.8438 17.0234 14.8438H16.0938V12.6562C16.0938 12.2938 15.7999 12 15.4375 12H7.5625C7.20006 12 6.90625 12.2938 6.90625 12.6562V14.8438H5.97656C5.88608 14.8438 5.8125 14.7702 5.8125 14.6797V9.53906Z"/><path d="M7.12611 11.3438C7.48855 11.3438 7.78236 11.0499 7.78236 10.6875C7.78236 10.3251 7.48855 10.0312 7.12611 10.0312H7.12584C6.76343 10.0312 6.46973 10.3251 6.46973 10.6875C6.46973 11.0499 6.76367 11.3438 7.12611 11.3438V11.3438Z"/></g>
    </symbol>
    <symbol id="telegram" viewBox="0 0 21 21">
      <g id="&#x421;&#x43B;&#x43E;&#x439;_2" data-name="&#x421;&#x43B;&#x43E;&#x439; 2"><g clip-path="url(#clip-path)" id="&#x421;&#x43B;&#x43E;&#x439;_1-2" data-name="&#x421;&#x43B;&#x43E;&#x439; 1"><path d="M21,10.5a10.52,10.52,0,1,1-3.08-7.42A10.48,10.48,0,0,1,21,10.5ZM10.88,7.75c-1,.43-3.07,1.31-6.13,2.64-.49.2-.75.39-.78.58s.36.44.91.62l.23.07A7.08,7.08,0,0,0,6.74,12a2,2,0,0,0,1.14-.42c2.86-1.93,4.33-2.9,4.43-2.92a.2.2,0,0,1,.21,0,.18.18,0,0,1,.05.18,30.39,30.39,0,0,1-2.42,2.39l-.47.44L9.43,12c-.5.48-.87.84,0,1.43l1.12.75c.37.26.74.51,1.23.83l.35.24a2,2,0,0,0,1.31.55c.28,0,.57-.29.72-1.08.35-1.86,1-5.89,1.19-7.55a1.85,1.85,0,0,0,0-.41.48.48,0,0,0-.15-.29.73.73,0,0,0-.41-.12C14.4,6.33,13.79,6.54,10.88,7.75Z"/></g></g>
    </symbol>
    <symbol id="up" viewBox="0 0 45 46">
      <path d="M22.0195 42.0305V13.9055" stroke="#fff" stroke-width="2" stroke-linecap="round" stroke-linejoin="round"/><path d="M9.18652 27.0305L22.0199 13.9055L34.8532 27.0305" stroke="#fff" stroke-width="2" stroke-linecap="round" stroke-linejoin="round"/><path d="M3.68652 6.53052H40.3532" stroke="#fff" stroke-width="2" stroke-linecap="round" stroke-linejoin="round"/>
    </symbol>
    <symbol id="viber" viewBox="0 0 455.731 455.731">
      <path d="M296.076,105.381c-45.26-8.61-91.16-8.61-136.43,0c-19.8,4.41-44.71,28.28-49.58,47.48c-8.1,37.15-8.1,74.81,0,111.96 c4.87,19.2,29.78,43.07,49.58,47.48c0.005,0.001,0.01,0.002,0.015,0.003c0.882,0.173,1.525,0.937,1.525,1.836v54.422 c0,2.72,3.32,4.06,5.21,2.09l25.85-26.53c0,0,20.599-21.146,24.303-24.948c0.362-0.372,0.862-0.573,1.38-0.559 c26.099,0.723,52.226-1.385,78.147-6.313c19.8-4.41,44.72-28.28,49.58-47.48c8.11-37.15,8.11-74.81,0-111.96 C340.795,133.661,315.886,109.791,296.076,105.381z M296.766,267.592c-3.96,8.408-9.722,15.403-18.034,19.868 c-2.345,1.26-5.148,1.667-7.795,2.482c-3.044-0.924-5.945-1.545-8.639-2.663c-27.916-11.582-53.608-26.524-73.959-49.429 c-11.573-13.025-20.632-27.73-28.288-43.292c-3.631-7.38-6.691-15.049-9.81-22.668c-2.845-6.948,1.345-14.126,5.756-19.361 c4.139-4.913,9.465-8.673,15.233-11.444c4.502-2.163,8.943-0.916,12.231,2.9c7.108,8.25,13.637,16.922,18.924,26.485 c3.251,5.882,2.359,13.072-3.533,17.075c-1.432,0.973-2.737,2.115-4.071,3.214c-1.17,0.963-2.271,1.936-3.073,3.24 c-1.466,2.385-1.536,5.2-0.592,7.794c7.266,19.968,19.513,35.495,39.611,43.858c3.217,1.338,6.446,2.896,10.151,2.464 c6.205-0.725,8.214-7.531,12.562-11.087c4.25-3.475,9.681-3.521,14.259-0.624c4.579,2.898,9.018,6.009,13.43,9.153 c4.331,3.086,8.643,6.105,12.638,9.623C297.606,258.562,298.929,263,296.766,267.592z M260.722,202.523 c-1.733,0.031-1.052-0.003-0.393-0.022c-2.793-0.098-4.312-1.742-4.612-4.415c-0.219-1.953-0.392-3.932-0.858-5.832 c-0.918-3.742-2.907-7.21-6.054-9.503c-1.486-1.083-3.17-1.873-4.934-2.381c-2.241-0.647-4.568-0.469-6.804-1.017 c-2.428-0.594-3.771-2.561-3.39-4.839c0.347-2.073,2.364-3.691,4.629-3.527c14.157,1.022,24.275,8.341,25.719,25.008 c0.102,1.176,0.222,2.418-0.039,3.543c-0.424,1.829-1.731,2.781-3.052,2.954C261.042,202.494,261.021,202.503,260.722,202.523z M251.919,164.404c-4.344-2.127-9.042-3.449-13.804-4.237c-2.081-0.344-4.184-0.553-6.275-0.844 c-2.534-0.352-3.886-1.967-3.767-4.464c0.112-2.34,1.822-4.023,4.372-3.879c8.38,0.476,16.474,2.287,23.924,6.232 c15.15,8.023,23.804,20.687,26.33,37.597c0.115,0.766,0.298,1.525,0.356,2.294c0.144,1.898,0.233,3.799,0.379,6.302 c-0.06,0.456-0.092,1.528-0.358,2.538c-0.969,3.666-6.527,4.125-7.807,0.425c-0.379-1.098-0.436-2.347-0.438-3.529 c-0.013-7.734-1.694-15.46-5.594-22.189C265.228,173.736,259.102,167.922,251.919,164.404z M298.731,216.665 c-2.927,0.035-4.244-2.414-4.434-5.039c-0.376-5.196-0.636-10.415-1.353-15.568c-3.78-27.201-25.47-49.705-52.544-54.534 c-4.074-0.727-8.245-0.918-12.371-1.351c-2.609-0.274-6.026-0.432-6.604-3.675c-0.485-2.719,1.81-4.884,4.399-5.023 c0.704-0.038,1.412-0.006,2.119-0.003c35.065,0.983,2.14,0.076,0.094,0.005c36.472,1.063,66.417,25.283,72.839,61.351 c1.095,6.151,1.485,12.44,1.972,18.683C303.052,214.136,301.565,216.631,298.731,216.665z"/><path d="M0,0v455.731h455.731V0H0z M371.996,270.781l-0.09,0.36c-7.28,29.43-40.1,61.01-70.24,67.58l-0.34,0.07 c-24.37,4.65-48.92,6.97-73.46,6.97c-7.223,0-14.446-0.225-21.665-0.629l-33.285,34.599c-8.24,8.58-22.73,2.74-22.73-9.15v-32.852 c-29.015-8.286-59.391-38.414-66.37-66.589l-0.08-0.36c-9-41.1-9-82.78,0-123.88l0.08-0.36c7.29-29.43,40.11-61.01,70.24-67.58 l0.35-0.07c48.74-9.3,98.17-9.3,146.92,0l0.34,0.07c30.14,6.57,62.96,38.15,70.24,67.58l0.09,0.36 C380.996,188.001,380.996,229.681,371.996,270.781z"/>
    </symbol>
    <symbol id="video" viewBox="0 0 17 19">
      <path d="M15.9215 8.0634L15.9215 8.06342C17.0302 8.70789 17.0268 10.2964 15.9215 10.9409L15.9215 10.9409L3.42098 18.2521L3.42096 18.2521C2.30485 18.9073 0.872422 18.1195 0.872422 16.8133V2.18744C0.872422 1.45886 1.25772 0.952466 1.76873 0.701316C2.28032 0.449879 2.91775 0.454371 3.42098 0.748694L15.9215 8.0634Z" fill="#323232" stroke="#000" stroke-width=".03"/>
    </symbol>
    <symbol id="vk" viewBox="0 0 14.171 14.171">
      <path d="M13.268,0H0.905C0.405,0,0,0.405,0,0.904v12.363c0,0.499,0.405,0.904,0.905,0.904h12.362 c0.499,0,0.904-0.405,0.904-0.904V0.904C14.172,0.404,13.767,0,13.268,0z M11.755,8.635c0.259,0.264,0.821,0.707,0.719,1.158 c-0.094,0.414-0.712,0.263-1.312,0.287c-0.685,0.029-1.091,0.044-1.503-0.287C9.465,9.636,9.351,9.45,9.165,9.242 C8.996,9.054,8.783,8.717,8.493,8.73C7.972,8.756,8.135,9.482,7.95,9.977c-2.896,0.456-4.059-1.333-5.085-3.069 C2.368,6.067,1.65,4.261,1.65,4.261l2.048-0.007c0,0,0.657,1.195,0.831,1.503c0.148,0.262,0.311,0.47,0.479,0.704 c0.141,0.194,0.364,0.574,0.608,0.543c0.397-0.051,0.469-1.591,0.223-2.107C5.741,4.688,5.506,4.615,5.263,4.544 C5.345,4.026,7.56,3.918,7.918,4.32c0.52,0.584-0.36,2.21,0.352,2.684c1-0.524,1.854-2.718,1.854-2.718l2.398,0.015 c0,0-0.375,1.186-0.768,1.712c-0.229,0.308-0.989,0.994-0.959,1.503C10.819,7.919,11.437,8.311,11.755,8.635z"/>
    </symbol>
    <symbol id="wa" viewBox="0 0 455.731 455.731">
      <path d="M228.071,95.321c-72.877,0-132.167,59.29-132.167,132.167c0,25.393,7.217,50.052,20.869,71.311l3.281,5.109l-12.855,45.658 l47.238-12.16l4.872,2.975c20.654,12.609,44.432,19.274,68.762,19.274c72.877,0,132.166-59.29,132.166-132.167 S300.948,95.321,228.071,95.321z M309.117,268.109l-1.649,7.702c-1.86,8.69-7.021,16.377-14.508,21.166 c-9.453,6.047-21.706,9.016-37.28,4.612c-48.333-13.667-75.667-45.667-90.333-65.667c-14.667-20-20.333-40-16.667-56.333 c2.459-10.954,10.465-19.359,15.472-23.708c2.453-2.13,5.635-3.214,8.878-3.037l10.328,0.563c2.034,0.111,3.828,1.367,4.629,3.24 l15.045,35.201c0.804,1.881,0.465,4.055-0.872,5.602l-13.096,15.15c-1.062,1.228-1.247,2.978-0.499,4.419 c17.248,33.224,48.682,46.389,58.066,49.687c1.599,0.562,3.371,0.031,4.407-1.312l13.703-17.764 c1.524-1.976,4.211-2.636,6.477-1.591l34.905,16.089C308.398,263.177,309.641,265.661,309.117,268.109z"/><path d="M0,0v455.731h455.731V0H0z M228.071,386.655c-27.347,0-54.125-7-77.814-20.292L68.494,387.41l22.323-79.284 c-14.355-24.387-21.913-52.134-21.913-80.638c0-87.765,71.402-159.167,159.167-159.167s159.166,71.402,159.166,159.167 C387.237,315.253,315.836,386.655,228.071,386.655z"/>
    </symbol></svg>