<svg xmlns="http://www.w3.org/2000/svg" xmlns:xlink="http://www.w3.org/1999/xlink" viewBox="0 0 22.28 26.4"><defs><style>.cls-1{fill:none;}.cls-2{clip-path:url(#clip-path);}.cls-3{fill:#fff;}</style><clipPath id="clip-path" transform="translate(-5.38 -2.75)"><rect class="cls-1" x="4.63" y="5.2" width="24.39" height="23.33" transform="translate(-6.96 18.17) rotate(-48.2)"/></clipPath></defs><g id="Слой_2" data-name="Слой 2"><g id="Слой_1-2" data-name="Слой 1"><g class="cls-2"><path d="M23.65,25.6a10.42,10.42,0,1,1,.46-14.73,10.42,10.42,0,0,1-.46,14.73M8.89,9.89a11.14,11.14,0,1,0,15.74.49A11.14,11.14,0,0,0,8.89,9.89" transform="translate(-5.38 -2.75)"/><path class="cls-3" d="M23.45,9.63A6.67,6.67,0,1,1,17,2.75a6.67,6.67,0,0,1,6.46,6.88" transform="translate(-5.38 -2.75)"/><path d="M14.89,17.64l3.28.11-1.44-5Zm3.69.75-4.15-.13a.31.31,0,0,1-.25-.14.31.31,0,0,1,0-.28l2.33-6.24a.3.3,0,0,1,.31-.2h0a.31.31,0,0,1,.29.22L18.89,18a.31.31,0,0,1-.05.28.32.32,0,0,1-.26.12" transform="translate(-5.38 -2.75)"/><path d="M14.86,18.27l1.44,5,1.84-4.94Zm1.39,6.35h0A.3.3,0,0,1,16,24.4L14.14,18a.31.31,0,0,1,0-.28.32.32,0,0,1,.26-.12l4.15.13a.29.29,0,0,1,.25.14.31.31,0,0,1,0,.28l-2.33,6.24a.3.3,0,0,1-.31.2" transform="translate(-5.38 -2.75)"/><path d="M16.94,8.64a2.24,2.24,0,0,1-2.25-2.4A2.26,2.26,0,0,1,17.08,4a2.32,2.32,0,0,1,1.35.47,2.18,2.18,0,0,1,.76,1.16l-.78,0a1.41,1.41,0,0,0-.53-.65,1.46,1.46,0,0,0-.83-.26,1.5,1.5,0,0,0-1.14.42,1.65,1.65,0,0,0-.49,1.16,1.65,1.65,0,0,0,.41,1.19A1.56,1.56,0,0,0,17,8a1.6,1.6,0,0,0,.85-.21,1.46,1.46,0,0,0,.56-.62l.78,0a2.11,2.11,0,0,1-.83,1.11,2.18,2.18,0,0,1-1.37.39" transform="translate(-5.38 -2.75)"/></g></g></g></svg>