<svg width="96" height="108" viewBox="0 0 96 108" fill="none" xmlns="http://www.w3.org/2000/svg">
<path d="M94.9587 33.0776C94.3556 23.7613 88.2363 15.4976 79.7837 11.8962L77.9722 14.6208C85.625 17.6187 91.2164 24.9702 91.7557 33.2853C92.1542 39.4353 89.7938 45.6866 85.4416 50.0076C85.3852 50.064 85.3393 50.1264 85.293 50.1883C86.3138 50.5754 87.2843 51.1115 88.1891 51.7756C92.8752 46.8359 95.4017 39.9044 94.9587 33.0776Z" fill="#C2A84D"/>
<path d="M68.1606 10.0873C61.3347 10.7224 54.9109 14.2097 50.6582 19.653V24.1024H51.5222C54.5752 18.789 59.7979 15.0664 65.6218 13.7314L68.5541 10.7986C68.4097 10.5702 68.2789 10.3326 68.1606 10.0873Z" fill="#C2A84D"/>
<path d="M70.7012 13.191C70.8314 13.1928 70.9612 13.1978 71.0914 13.202C71.0061 13.1547 70.925 13.1011 70.8424 13.0502L70.7012 13.191Z" fill="#C2A84D"/>
<path d="M50.6586 19.6529V6.09405C50.6586 5.20755 49.9399 4.48891 49.0534 4.48891H17.9748C17.0887 4.48891 16.3696 5.20755 16.3696 6.09405V36.0753H2.03483C1.14833 36.0753 0.429688 36.7934 0.429688 37.6804V80.8962C0.429688 81.7827 1.14833 82.5013 2.03483 82.5013C2.92086 82.5013 3.63996 81.7827 3.63996 80.8962V39.2855H17.9748C18.8613 39.2855 19.5799 38.5669 19.5799 37.6804V7.69918H47.4483V25.7074C47.4483 26.5939 48.1669 27.3126 49.0534 27.3126H72.4852V49.0608C72.4852 49.9473 73.2039 50.666 74.0904 50.666C74.9764 50.666 75.6955 49.9473 75.6955 49.0608V25.7074C75.6955 24.821 74.9764 24.1023 74.0904 24.1023H51.5226H50.6586V19.6529Z" fill="#114034"/>
<path d="M70.6701 7.04431C70.6701 4.93011 72.3899 3.21032 74.5036 3.21032C76.6183 3.21032 78.3381 4.93011 78.3381 7.04431C78.3381 9.1585 76.6183 10.8783 74.5036 10.8783C72.3899 10.8783 70.6701 9.1585 70.6701 7.04431ZM80.2564 11.1856C80.328 11.0787 80.3803 10.9654 80.4225 10.8503C81.1319 9.75103 81.5483 8.44674 81.5483 7.04431C81.5483 3.16033 78.3881 4.57764e-05 74.5036 4.57764e-05C73.1686 4.57764e-05 71.9239 0.380234 70.8586 1.02779C70.6825 1.06769 70.5091 1.1319 70.3482 1.23463L59.148 8.37565C58.4004 8.85215 58.1812 9.84458 58.6577 10.5921C58.9636 11.0723 59.4823 11.3342 60.0124 11.3342C60.3078 11.3342 60.6068 11.253 60.8742 11.0824L67.4685 6.87783C67.4672 6.93378 67.4598 6.9879 67.4598 7.04431C67.4598 8.13488 67.7166 9.16492 68.1606 10.0872C68.2789 10.3325 68.4096 10.5701 68.5545 10.799L65.6217 13.7318L60.0005 19.3525C59.3736 19.9794 59.3736 20.9957 60.0005 21.6226C60.3142 21.9359 60.7247 22.0927 61.1356 22.0927C61.546 22.0927 61.9569 21.9359 62.2706 21.6226L70.7013 13.1911L70.8425 13.0503C70.9255 13.1012 71.0063 13.1548 71.0916 13.2021C72.0945 13.7602 73.2466 14.0812 74.4724 14.0867L70.4417 20.1496C69.9515 20.8875 70.1514 21.8836 70.8898 22.3747C71.1631 22.5564 71.4717 22.6435 71.7772 22.6435C72.2963 22.6435 72.8058 22.3917 73.1154 21.9267L77.9726 14.621L79.7841 11.8964L80.2564 11.1856Z" fill="#114034"/>
<path d="M25.4437 13.198H31.6973V19.4516H25.4437V13.198ZM41.1612 28.9462H34.9071V22.6926H41.1612V28.9462ZM41.1612 47.8744H34.9071V41.6204H41.1612V47.8744ZM25.4437 32.1257H31.6973V38.3793H25.4437V32.1257ZM23.8385 28.9155C22.952 28.9155 22.2334 29.6341 22.2334 30.5206V39.985C22.2334 40.8715 22.952 41.5901 23.8385 41.5901H31.6973V49.4796C31.6973 50.3656 32.4159 51.0847 33.3024 51.0847H39.7138L44.3714 44.1922V40.0152C44.3714 39.1287 43.6528 38.4101 42.7663 38.4101H34.9076V32.1565H42.7663C43.6528 32.1565 44.3714 31.4378 44.3714 30.5513V21.0874C44.3714 20.2005 43.6528 19.4823 42.7663 19.4823H34.9076V11.5928C34.9076 10.7063 34.1885 9.98769 33.3024 9.98769H23.8385C22.952 9.98769 22.2334 10.7063 22.2334 11.5928V21.0567C22.2334 21.9432 22.952 22.6619 23.8385 22.6619H31.6973V28.9155H23.8385Z" fill="#C2A84D"/>
<path d="M44.2205 50.1501L43.9307 50.5785C44.0494 50.4528 44.1471 50.3088 44.2205 50.1501Z" fill="#C2A84D"/>
<path d="M9.64143 45.0783H15.895V51.3319H9.64143V45.0783ZM25.3585 60.8261H19.1049V54.5724H25.3585V60.8261ZM25.3585 79.7538H19.1049V73.5002H25.3585V79.7538ZM9.64143 64.0061H15.895V70.2601H9.64143V64.0061ZM8.03629 60.7958C7.1498 60.7958 6.43115 61.5144 6.43115 62.4009V71.8648C6.43115 72.7513 7.1498 73.4699 8.03629 73.4699H15.8946V81.359C15.8946 82.2455 16.6137 82.9641 17.4997 82.9641H26.9636C27.8501 82.9641 28.5688 82.2455 28.5688 81.359V71.8955C28.5688 71.009 27.8501 70.2904 26.9636 70.2904H19.1049V64.0363H26.9636C27.8501 64.0363 28.5688 63.3177 28.5688 62.4312V52.9673C28.5688 52.0813 27.8501 51.3622 26.9636 51.3622H19.1049V43.4731C19.1049 42.5862 18.3862 41.868 17.4997 41.868H8.03629C7.1498 41.868 6.43115 42.5862 6.43115 43.4731V52.937C6.43115 53.8231 7.1498 54.5422 8.03629 54.5422H15.8946V60.7958H8.03629Z" fill="#C2A84D"/>
<path d="M67.124 47.8117H60.87V41.5581H67.124V47.8117ZM50.1807 36.8587C50.6599 36.8587 51.1029 37.0807 51.4061 37.4453V32.0635H57.6597V38.3171H52.0193L54.1898 41.5274H57.6597V46.6592L60.6095 51.022H68.7292C69.6152 51.022 70.3343 50.3033 70.3343 49.4168V39.9529C70.3343 39.0665 69.6152 38.3478 68.7292 38.3478H60.87V30.4583C60.87 29.5718 60.1509 28.8532 59.2649 28.8532H49.8009C48.9144 28.8532 48.1958 29.5718 48.1958 30.4583V38.5335L48.8507 37.565C49.1493 37.1233 49.6473 36.8587 50.1807 36.8587Z" fill="#C2A84D"/>
<path d="M50.0479 41.527H50.3148L50.1813 41.3293L50.0479 41.527Z" fill="#C2A84D"/>
<path d="M39.151 51.9173C38.8185 52.4094 38.785 53.0445 39.0638 53.5692C39.3422 54.0934 39.887 54.4213 40.4809 54.4213H42.1113L35.394 64.208C35.0565 64.6992 35.0194 65.3367 35.2973 65.8641C35.5747 66.3915 36.1219 66.7212 36.7171 66.7212H39.3326L30.8891 80.5231C30.586 81.0184 30.5745 81.6389 30.8584 82.1452C31.1423 82.6524 31.6775 82.9657 32.2585 82.9657H44.7942V87.0225C44.7942 87.909 45.5128 88.6277 46.3993 88.6277C47.2854 88.6277 48.0045 87.909 48.0045 87.0225V81.3605C48.0045 80.4745 47.2854 79.7554 46.3993 79.7554H35.1221L43.5651 65.9535C43.8682 65.4582 43.8802 64.8382 43.5958 64.3314C43.3119 63.8246 42.7768 63.511 42.1961 63.511H39.766L46.4832 53.7242C46.8208 53.233 46.8579 52.5956 46.58 52.0682C46.3025 51.5412 45.7554 51.211 45.1602 51.211H43.5032L43.9306 50.5786L44.2205 50.1502L50.0476 41.5274L50.181 41.3298L50.3145 41.5274L56.8616 51.211H55.2019C54.6057 51.211 54.059 51.5412 53.7816 52.0686C53.5041 52.5956 53.5413 53.2335 53.8783 53.7247L60.5988 63.511H58.17C57.589 63.511 57.0538 63.8251 56.7699 64.3314C56.486 64.8382 56.4975 65.4582 56.8006 65.954L65.245 79.7554H53.9669C53.0804 79.7554 52.3617 80.4745 52.3617 81.3605C52.3617 82.247 53.0804 82.9657 53.9669 82.9657H68.1095C68.6901 82.9657 69.2253 82.6524 69.5092 82.1452C69.7931 81.6389 69.7816 81.0184 69.4784 80.5227L61.034 66.7212H63.6477C64.2439 66.7212 64.7905 66.3915 65.068 65.8636C65.3454 65.3367 65.3083 64.6988 64.9712 64.2076L58.2507 54.4213H59.8848C60.4787 54.4213 61.024 54.0934 61.3023 53.5692C61.5807 53.0445 61.5472 52.4089 61.2143 51.9173L60.6094 51.0221L57.6591 46.6593L54.1897 41.5274L52.0191 38.3172L51.5101 37.5646C51.4803 37.5201 51.4399 37.4857 51.406 37.4449C51.1028 37.0808 50.6598 36.8588 50.1806 36.8588C49.6472 36.8588 49.1491 37.1234 48.8501 37.565L48.1957 38.5336L44.3713 44.1924L39.7137 51.0849L39.151 51.9173Z" fill="#114034"/>
<path d="M1.60517 86.9466C0.723266 86.9466 0.005999 87.6584 3.70637e-05 88.5417C-0.00592488 89.4277 0.708132 90.151 1.59509 90.1569C8.3761 90.2014 11.6951 92.5013 15.2094 94.9366C18.97 97.5424 22.8586 100.237 30.632 100.287C30.7059 100.288 30.7788 100.288 30.8522 100.288C38.4793 100.288 42.3688 97.6708 46.1303 95.1388C49.6795 92.7494 53.0407 90.5128 59.8148 90.5376C66.5963 90.582 69.9157 92.8815 73.43 95.3167C77.1906 97.9226 81.0797 100.617 88.8531 100.667H88.8641C89.7451 100.667 90.4628 99.9556 90.4688 99.0723C90.4743 98.1863 89.7607 97.463 88.8737 97.4571C82.0923 97.4126 78.7733 95.1131 75.259 92.6779C71.4979 90.0721 67.6093 87.3777 59.8354 87.3273C59.7616 87.3268 59.6882 87.3264 59.6148 87.3264C51.9881 87.3264 48.0991 89.9437 44.3376 92.4757C40.788 94.8646 37.4185 97.1127 30.6527 97.0769C23.8716 97.0324 20.5518 94.7329 17.0374 92.2977C13.2773 89.6919 9.38917 86.9975 1.61572 86.9466H1.60517Z" fill="#114034"/>
<path d="M88.8772 104.051C82.0957 104.006 78.7763 101.707 75.2619 99.2709C71.5009 96.6651 67.6123 93.9707 59.8389 93.9203C59.765 93.9198 59.6921 93.9194 59.6192 93.9194C51.9911 93.9194 48.1026 96.5371 44.3406 99.0691C40.7909 101.458 37.4311 103.714 30.6561 103.67C23.8751 103.626 20.5552 101.326 17.0413 98.8912C13.2807 96.2853 9.39259 93.5905 1.61868 93.5401H1.60814C0.726688 93.5401 0.00941697 94.2519 0.00345503 95.1351C-0.00250691 96.0212 0.711552 96.7444 1.59805 96.7504C8.37952 96.7948 11.6989 99.0943 15.2128 101.53C18.9734 104.135 22.862 106.83 30.6354 106.881C30.7088 106.881 30.7817 106.882 30.8547 106.882C38.4823 106.882 42.3713 104.264 46.1333 101.732C49.6829 99.3424 53.0285 97.0663 59.8182 97.1305C66.5997 97.175 69.9187 99.4745 73.433 101.91C77.1936 104.516 81.0826 107.21 88.8565 107.261H88.8675C89.7485 107.261 90.4662 106.549 90.4722 105.666C90.4777 104.78 89.7641 104.056 88.8772 104.051Z" fill="#C2A84D"/>
<path d="M88.1897 51.7753C87.2844 51.1113 86.3144 50.5756 85.2935 50.1885C84.0599 49.7208 82.7542 49.4662 81.4022 49.4662C73.9104 49.4662 67.8154 57.181 67.8154 66.6641C67.8154 73.5346 71.023 79.7309 75.987 82.45C76.2319 82.5844 76.496 82.6476 76.7565 82.6476C77.3243 82.6476 77.8741 82.3459 78.1658 81.8134C78.5914 81.0361 78.3066 80.0606 77.5293 79.6346C73.5788 77.4704 71.0257 72.3793 71.0257 66.6641C71.0257 58.9512 75.6811 52.6765 81.4022 52.6765C87.1239 52.6765 91.7788 58.9512 91.7788 66.6641C91.7788 72.1097 89.3903 77.1049 85.6939 79.3906C84.94 79.8565 84.7065 80.8458 85.1729 81.5997C85.6384 82.3537 86.6286 82.5866 87.3821 82.1207C92.0746 79.22 94.989 73.297 94.989 66.6641C94.989 60.3092 92.2502 54.7526 88.1897 51.7753Z" fill="#114034"/>
<path d="M81.6145 93.2632C82.5009 93.2632 83.2196 92.5445 83.2196 91.658V78.1845C83.2278 78.1767 83.237 78.1717 83.2448 78.1639L87.9777 73.4315C88.6046 72.805 88.6046 71.7887 87.9777 71.1618C87.3517 70.5344 86.3349 70.5344 85.708 71.1618L83.2196 73.6493V69.5824L87.7103 65.0916C88.3372 64.4652 88.3372 63.4484 87.7103 62.822C87.0834 62.1951 86.0676 62.1951 85.4406 62.822L83.2196 65.043V57.2444C83.2196 56.3579 82.5009 55.6392 81.6145 55.6392C80.728 55.6392 80.0093 56.3579 80.0093 57.2444V61.2742L77.6942 58.9591C77.0673 58.3322 76.0515 58.3322 75.4246 58.9591C74.7977 59.5856 74.7977 60.6023 75.4246 61.2288L80.0093 65.8135V69.4264L77.4874 66.9045C76.8614 66.2776 75.8447 66.2776 75.2177 66.9045C74.5908 67.5315 74.5908 68.5473 75.2177 69.1747L80.0093 73.9667V91.658C80.0093 92.5445 80.728 93.2632 81.6145 93.2632Z" fill="#C2A84D"/>
</svg>
