<svg width="96" height="93" viewBox="0 0 96 93" fill="none" xmlns="http://www.w3.org/2000/svg">
<path d="M48.5658 29.1893H42.8357V23.4592H48.5658V29.1893ZM42.6879 7.10175H48.4183V12.8318H42.6879V7.10175ZM56.7484 21.189H51.0184V15.459H56.7484V21.189ZM51.109 30.8503C51.1424 30.7348 51.1658 30.6152 51.1658 30.4893V23.789H58.0484C58.7661 23.789 59.3485 23.207 59.3485 22.489V14.1586C59.3485 13.4406 58.7661 12.8586 58.0484 12.8586H51.0184V5.80174C51.0184 5.08377 50.436 4.50173 49.7184 4.50173H41.3879C40.6699 4.50173 40.0879 5.08377 40.0879 5.80174V14.1318C40.0879 14.8498 40.6699 15.4318 41.3879 15.4318H48.4183V20.8592H41.5357C40.8181 20.8592 40.2357 21.4412 40.2357 22.1592V30.4893C40.2357 31.2073 40.8181 31.7893 41.5357 31.7893H44.1472C45.7459 31.0914 47.4667 30.7084 49.26 30.7084C49.8862 30.7084 50.5025 30.7601 51.109 30.8503Z" fill="#C2A84D"/>
<path d="M34.7257 29.9381H28.9956V24.208H34.7257V29.9381ZM26.2191 38.2972H20.4887V32.5671H26.2191V38.2972ZM37.3257 31.2381V22.908C37.3257 22.1901 36.7436 21.608 36.0257 21.608H27.6959C26.978 21.608 26.3959 22.1901 26.3959 22.908V29.9671H19.1887C18.4711 29.9671 17.8887 30.5487 17.8887 31.2671V39.5972C17.8887 40.3152 18.4711 40.8972 19.1887 40.8972H27.5192C28.2371 40.8972 28.8192 40.3152 28.8192 39.5972V32.5381H36.0257C36.7436 32.5381 37.3257 31.9561 37.3257 31.2381Z" fill="#C2A84D"/>
<path d="M70.9027 26.9413H65.1723V21.2113H70.9027V26.9413ZM73.6795 29.5703H79.4096V35.3004H73.6795V29.5703ZM72.3795 37.9004H80.7093C81.4272 37.9004 82.0093 37.3184 82.0093 36.6004V28.2703C82.0093 27.5523 81.4272 26.9703 80.7093 26.9703H73.5027V19.9113C73.5027 19.1933 72.9207 18.6112 72.2027 18.6112H63.8723C63.1547 18.6112 62.5723 19.1933 62.5723 19.9113V28.2413C62.5723 28.9593 63.1547 29.5414 63.8723 29.5414H71.0795V36.6004C71.0795 37.3184 71.6616 37.9004 72.3795 37.9004Z" fill="#C2A84D"/>
<path d="M14.946 45.1032C15.664 45.1032 16.246 44.5211 16.246 43.8032V19.5933H36.2134C36.931 19.5933 37.5134 19.0112 37.5134 18.2933V2.65897H61.9495V14.6399C61.9495 15.3578 62.5316 15.9399 63.2495 15.9399H83.9669V38.7751C83.9669 39.4931 84.5493 40.0751 85.2669 40.0751C85.9848 40.0751 86.5669 39.4931 86.5669 38.7751V14.6399C86.5669 13.9219 85.9848 13.3399 85.2669 13.3399H64.5495V1.35897C64.5495 0.640617 63.9671 0.0589561 63.2495 0.0589561H36.2134C35.4954 0.0589561 34.9134 0.640617 34.9134 1.35897V16.9933H14.946C14.228 16.9933 13.646 17.5753 13.646 18.2933V43.8032C13.646 44.5211 14.228 45.1032 14.946 45.1032Z" fill="#114034"/>
<path d="M12.9544 71.671C14.0891 71.671 15.0117 72.5937 15.0117 73.7284C15.0117 74.8628 14.0891 75.7854 12.9544 75.7854C11.82 75.7854 10.8974 74.8628 10.8974 73.7284C10.8974 72.5937 11.82 71.671 12.9544 71.671ZM12.9544 78.3854C15.5224 78.3854 17.6117 76.2961 17.6117 73.7284C17.6117 71.1603 15.5224 69.071 12.9544 69.071C10.3867 69.071 8.29736 71.1603 8.29736 73.7284C8.29736 76.2961 10.3867 78.3854 12.9544 78.3854Z" fill="#C2A84D"/>
<path d="M26.5042 75.7856C25.3698 75.7856 24.4472 74.8629 24.4472 73.7286C24.4472 72.5939 25.3698 71.6712 26.5042 71.6712C27.6389 71.6712 28.5615 72.5939 28.5615 73.7286C28.5615 74.8629 27.6389 75.7856 26.5042 75.7856ZM26.5042 69.0712C23.9365 69.0712 21.8472 71.1605 21.8472 73.7286C21.8472 76.2963 23.9365 78.3856 26.5042 78.3856C29.0722 78.3856 31.1616 76.2963 31.1616 73.7286C31.1616 71.1605 29.0722 69.0712 26.5042 69.0712Z" fill="#C2A84D"/>
<path d="M11.8506 68.3308H13.4644C13.5599 68.3531 13.658 68.368 13.7605 68.368H26.9775C28.5787 68.368 29.9404 67.3294 30.3022 65.8374L31.8358 60.4665C31.8417 60.4453 31.8477 60.4234 31.8529 60.4011C32.0702 59.4573 31.844 58.4764 31.2337 57.7086C30.5822 56.8907 29.5931 56.4216 28.5197 56.4216H22.228H19.628H13.1246C12.4066 56.4216 11.8246 57.0036 11.8246 57.7216C11.8246 58.4392 12.4066 59.0216 13.1246 59.0216H28.5197C28.7964 59.0216 29.0441 59.1331 29.199 59.3281C29.2785 59.4276 29.3624 59.5881 29.3238 59.7942L27.7939 65.1517C27.7876 65.1736 27.782 65.1956 27.7768 65.2171C27.7196 65.4667 27.5008 65.661 27.2223 65.7345C27.2104 65.7341 27.1989 65.7308 27.1866 65.7308H11.8506C11.4097 65.7308 11.088 65.4726 11.0438 65.2357L8.38623 50.9523C8.10097 49.4357 6.68693 48.3352 5.02366 48.3352H1.80001C1.0824 48.3352 0.5 48.9172 0.5 49.6352C0.5 50.3532 1.0824 50.9352 1.80001 50.9352H5.02366C5.46455 50.9352 5.78621 51.1937 5.83041 51.4307L8.488 65.7141C8.77326 67.2303 10.1873 68.3308 11.8506 68.3308Z" fill="#114034"/>
<path d="M22.2284 47.8938C26.2741 48.367 29.3803 51.0146 29.3803 54.2C29.3803 54.9176 29.9624 55.5 30.6804 55.5C31.398 55.5 31.9804 54.9176 31.9804 54.2C31.9804 49.2477 27.0225 45.2184 20.9284 45.2184C20.2105 45.2184 19.6284 45.8004 19.6284 46.5184V56.4215H22.2284V47.8938Z" fill="#C2A84D"/>
<path d="M54.7854 66.4997C60.6655 63.7121 64.4649 56.9346 64.4649 49.233C64.4649 39.7811 58.6234 31.9655 51.1093 30.8501C50.5028 30.7602 49.8866 30.7086 49.2603 30.7086C47.4671 30.7086 45.7462 31.0911 44.1472 31.7891C38.2719 34.3534 34.0562 41.2034 34.0562 49.233C34.0562 57.3164 38.2916 64.4048 44.5944 66.8711C44.75 66.9317 44.9105 66.9606 45.068 66.9606C45.5872 66.9606 46.0783 66.6468 46.2792 66.1342C46.5407 65.4656 46.2105 64.7116 45.5419 64.4494C40.2275 62.3705 36.6562 56.2552 36.6562 49.233C36.6562 40.4523 42.3105 33.3086 49.2603 33.3086C56.2105 33.3086 61.8648 40.4523 61.8648 49.233C61.8648 55.8322 58.5721 61.8271 53.6718 64.1508C53.0229 64.4583 52.7466 65.2335 53.0541 65.882C53.3613 66.5313 54.1383 66.8065 54.7854 66.4997Z" fill="#114034"/>
<path d="M49.507 73.0082C50.225 73.0082 50.807 72.4262 50.807 71.7082V62.379C50.8757 62.3329 50.9407 62.2806 51.0013 62.22L57.4594 55.7619C57.9671 55.2546 57.9671 54.4311 57.4594 53.9237C56.9516 53.416 56.1289 53.416 55.6211 53.9237L50.807 58.7378V52.493L57.0876 46.2124C57.5953 45.7051 57.5953 44.8816 57.0876 44.3742C56.5798 43.8665 55.7571 43.8665 55.2493 44.3742L50.807 48.8162V37.5756C50.807 36.8576 50.225 36.2755 49.507 36.2755C48.789 36.2755 48.207 36.8576 48.207 37.5756V44.1425L43.7576 39.6927C43.2495 39.1853 42.4268 39.1853 41.919 39.6927C41.4113 40.2005 41.4113 41.0235 41.919 41.5313L48.207 47.8193V54.6673L43.6336 50.0943C43.1258 49.5862 42.3031 49.5862 41.7954 50.0943C41.2876 50.6016 41.2876 51.4251 41.7954 51.9325L48.207 58.3441V71.7082C48.207 72.4262 48.789 73.0082 49.507 73.0082Z" fill="#C2A84D"/>
<path d="M94.2084 49.8383H68.112C67.3944 49.8383 66.812 50.4203 66.812 51.1383V58.906C66.812 60.6469 68.2287 62.0632 69.9692 62.0632H73.5204H75.9745C75.8493 61.6093 75.7769 61.1339 75.7769 60.641C75.7769 60.2357 75.8259 59.8428 75.9113 59.4632H69.9692C69.662 59.4632 69.412 59.2132 69.412 58.906V52.4383H92.9084V58.906C92.9084 59.2132 92.6584 59.4632 92.3513 59.4632H86.356C86.4418 59.8428 86.4908 60.2357 86.4908 60.641C86.4908 61.1339 86.4184 61.6093 86.2928 62.0632H88.8085H92.3513C94.0922 62.0632 95.5084 60.6469 95.5084 58.906V51.1383C95.5084 50.4203 94.9264 49.8383 94.2084 49.8383Z" fill="#114034"/>
<path d="M76.1204 74.59H73.5204H71.8029C71.4003 74.59 71.0727 74.2624 71.0727 73.8597V63.9808C71.0727 63.2628 70.4906 62.6808 69.7727 62.6808C69.0551 62.6808 68.4727 63.2628 68.4727 63.9808V73.8597C68.4727 75.6961 69.9669 77.19 71.8029 77.19H90.5178C92.3538 77.19 93.8481 75.6961 93.8481 73.8597V63.9808C93.8481 63.2628 93.2657 62.6808 92.5481 62.6808C91.8301 62.6808 91.2481 63.2628 91.2481 63.9808V73.8597C91.2481 74.2624 90.9205 74.59 90.5178 74.59H88.8085H86.2085H76.1204Z" fill="#114034"/>
<path d="M78.377 60.6411C78.377 59.1208 79.6135 57.8839 81.1337 57.8839C82.654 57.8839 83.8909 59.1208 83.8909 60.6411C83.8909 62.1613 82.654 63.3982 81.1337 63.3982C79.6135 63.3982 78.377 62.1613 78.377 60.6411ZM86.4909 60.6411C86.4909 60.2358 86.4419 59.8429 86.3561 59.4633C85.8175 57.0746 83.6825 55.2839 81.1337 55.2839C78.5853 55.2839 76.4504 57.0746 75.9114 59.4633C75.826 59.8429 75.777 60.2358 75.777 60.6411C75.777 61.134 75.8494 61.6094 75.9746 62.0633H73.5205V74.5902H76.1205V62.5112C76.8816 64.5444 78.8383 65.9982 81.1337 65.9982C83.492 65.9982 85.4951 64.4646 86.2086 62.3441V74.5902H88.8086V62.0633H86.2929C86.4185 61.6094 86.4909 61.134 86.4909 60.6411Z" fill="#C2A84D"/>
<path d="M75.154 49.0291C75.872 49.0291 76.454 48.4471 76.454 47.7291C76.454 45.3159 78.417 43.3529 80.8302 43.3529C83.2434 43.3529 85.2068 45.3159 85.2068 47.7291C85.2068 48.4471 85.7892 49.0291 86.5068 49.0291C87.2248 49.0291 87.8068 48.4471 87.8068 47.7291C87.8068 43.8826 84.6775 40.7525 80.8302 40.7525C76.9837 40.7525 73.854 43.8826 73.854 47.7291C73.854 48.4471 74.436 49.0291 75.154 49.0291Z" fill="#114034"/>
<path d="M92.2445 83.7989C82.2675 83.7989 77.4092 81.6167 72.2656 79.3064C67.099 76.9857 61.756 74.5859 51.2214 74.5859C40.6869 74.5859 35.3442 76.9857 30.1773 79.3064C25.0337 81.6167 20.1757 83.7989 10.198 83.7989C9.48035 83.7989 8.89795 84.3809 8.89795 85.0989C8.89795 85.8169 9.48035 86.3989 10.198 86.3989C20.7329 86.3989 26.0755 83.9991 31.2429 81.6784C36.3857 79.3681 41.244 77.1859 51.2214 77.1859C61.1988 77.1859 66.0568 79.3681 71.2007 81.6784C76.3673 83.9991 81.7104 86.3989 92.2445 86.3989C92.9625 86.3989 93.5446 85.8169 93.5446 85.0989C93.5446 84.3809 92.9625 83.7989 92.2445 83.7989Z" fill="#114034"/>
<path d="M92.2445 89.6406C82.2675 89.6406 77.4092 87.4584 72.2656 85.1481C67.099 82.8274 61.756 80.4276 51.2214 80.4276C40.6869 80.4276 35.3442 82.8274 30.1773 85.1481C25.0337 87.4584 20.1757 89.6406 10.198 89.6406C9.48035 89.6406 8.89795 90.2226 8.89795 90.9406C8.89795 91.6586 9.48035 92.2406 10.198 92.2406C20.7329 92.2406 26.0755 89.8408 31.2429 87.5201C36.3857 85.2098 41.244 83.0276 51.2214 83.0276C61.1988 83.0276 66.0568 85.2098 71.2007 87.5201C76.3673 89.8408 81.7104 92.2406 92.2445 92.2406C92.9625 92.2406 93.5446 91.6586 93.5446 90.9406C93.5446 90.2226 92.9625 89.6406 92.2445 89.6406Z" fill="#C2A84D"/>
</svg>
