<svg width="63" height="38" viewBox="0 0 63 38" fill="none" xmlns="http://www.w3.org/2000/svg">
<path d="M25.2154 6.60539C21.5252 10.2956 21.5252 16.2781 25.2154 19.9683L31.632 26.3849L38.049 19.9683C41.7389 16.2781 41.7389 10.2956 38.049 6.60539L31.632 0.188732L25.2154 6.60539Z" fill="#C2A84D"/>
<path d="M53.9251 7.9845C48.7066 7.9845 44.4761 12.215 44.4761 17.4336V26.5082H53.5507C58.7692 26.5082 62.9998 22.2777 62.9998 17.0592V7.9845H53.9251Z" fill="#C2A84D"/>
<path d="M0.155273 17.023C0.155273 22.2415 4.38582 26.4721 9.60433 26.4721H18.679V17.3974C18.679 12.1789 14.4484 7.94836 9.22993 7.94836H0.155273V17.023Z" fill="#C2A84D"/>
<path d="M0.226562 37.7406H62.981V30.2602H0.226562V37.7406Z" fill="#C2A84D"/>
</svg>
