<svg width="158" height="68" viewBox="0 0 158 68" fill="none" xmlns="http://www.w3.org/2000/svg">
<path d="M72.5455 7.16481C68.8553 10.855 68.8553 16.8375 72.5455 20.5277L78.9621 26.9443L85.3791 20.5277C89.0689 16.8375 89.0689 10.855 85.3791 7.16481L78.9621 0.74815L72.5455 7.16481Z" fill="#C2A84D"/>
<path d="M101.255 8.54367C96.0367 8.54367 91.8062 12.7742 91.8062 17.9927V27.0674H100.881C106.099 27.0674 110.33 22.8368 110.33 17.6183V8.54367H101.255Z" fill="#C2A84D"/>
<path d="M47.4854 17.5827C47.4854 22.8012 51.7159 27.0317 56.9344 27.0317H66.0091V17.9571C66.0091 12.7386 61.7785 8.50803 56.56 8.50803H47.4854V17.5827Z" fill="#C2A84D"/>
<path d="M47.5566 38.2998H110.311V30.8194H47.5566V38.2998Z" fill="#C2A84D"/>
<path d="M100.092 62.3454C97.8192 62.3454 96.1055 60.5943 96.1055 58.2724C96.1055 55.9505 97.8192 54.1993 100.092 54.1993C102.39 54.1993 104.058 55.9124 104.058 58.2724C104.058 60.6324 102.39 62.3454 100.092 62.3454ZM106.186 52.2957H104.08V53.5749C103.016 52.6364 101.617 52.1092 100.058 52.1092C96.5996 52.1092 93.9917 54.759 93.9917 58.2724C93.9917 61.786 96.5996 64.4355 100.058 64.4355C101.616 64.4355 103.015 63.9083 104.08 62.9687V64.2274H104.164V64.2327H106.172V64.2274H106.186V52.2957Z" fill="#13322B"/>
<path d="M138.745 62.3454C136.472 62.3454 134.759 60.5943 134.759 58.2724C134.759 55.9505 136.472 54.1993 138.745 54.1993C141.043 54.1993 142.712 55.9124 142.712 58.2724C142.712 60.6324 141.043 62.3454 138.745 62.3454ZM144.84 52.2957H142.733V53.5749C141.669 52.6364 140.27 52.1092 138.711 52.1092C135.253 52.1092 132.645 54.759 132.645 58.2724C132.645 61.786 135.253 64.4355 138.711 64.4355C140.27 64.4355 141.669 63.9083 142.733 62.9687V64.2274H142.817V64.2327H144.826V64.2274H144.84V52.2957Z" fill="#13322B"/>
<path d="M17.5222 62.3453C15.25 62.3453 13.5361 60.5944 13.5361 58.2725C13.5361 55.9505 15.25 54.1994 17.5222 54.1994C19.8204 54.1994 21.4887 55.9125 21.4887 58.2725C21.4887 60.6325 19.8204 62.3453 17.5222 62.3453ZM17.5562 52.1093C16.0351 52.1093 14.6303 52.6518 13.5557 53.592V52.2958H11.4492V56.8589H11.4513V67.918H13.5557V62.9576C14.6312 63.8973 16.0389 64.4354 17.5559 64.4354C21.0004 64.4354 23.5984 61.7856 23.5984 58.2725C23.5984 54.7588 21.0004 52.1093 17.5562 52.1093Z" fill="#13322B"/>
<path d="M114.331 62.3365C112.059 62.3365 110.345 60.5856 110.345 58.2637C110.345 55.9418 112.059 54.1906 114.331 54.1906C116.63 54.1906 118.298 55.9037 118.298 58.2637C118.298 60.6237 116.63 62.3365 114.331 62.3365ZM114.365 52.1005C112.844 52.1005 111.439 52.643 110.365 53.5832V52.287H108.258V56.8501H108.26V67.9092H110.365V62.9489C111.44 63.8885 112.848 64.4266 114.365 64.4266C117.81 64.4266 120.408 61.7768 120.408 58.2637C120.408 54.7501 117.81 52.1005 114.365 52.1005Z" fill="#13322B"/>
<path d="M47.5286 52.3142V57.0193H41.4644V52.313H39.3696V64.2471H41.4644V59.0971H47.5286V64.2389H49.6237V52.3142H47.5286Z" fill="#13322B"/>
<path d="M0 64.2324H2.09478V54.3686H9.29859V52.3121H0V64.2324Z" fill="#13322B"/>
<path d="M60.6814 54.3491V62.1521H55.4953C55.9286 60.9493 56.1616 58.8811 56.4845 54.3491H60.6814ZM62.7761 52.2976H54.5364L54.4854 52.9861C53.9869 59.7851 53.7797 61.3928 53.1664 62.1521H51.5757V67.1646H53.6418V64.2323H62.2173V67.1646H64.2834V62.1521H62.7761V52.2976Z" fill="#13322B"/>
<path d="M81.173 52.3121H78.4316L74.3412 57.0075H73.4604V52.3121H71.356V64.2324H73.4604V59.0783H74.3301L78.7881 64.2324H81.5404L76.1889 58.047L81.173 52.3121Z" fill="#13322B"/>
<path d="M85.3721 59.0395H88.7786C89.8506 59.0395 90.5713 59.6647 90.5713 60.5953C90.5713 61.5262 89.8588 62.1518 88.798 62.1518H85.3721V59.0395ZM88.759 56.9734H85.3721V54.3877H88.759C89.6879 54.3877 90.2429 54.8722 90.2429 55.683C90.2429 56.4787 89.6741 56.9734 88.759 56.9734ZM91.3965 57.937C91.999 57.3487 92.3423 56.5319 92.3423 55.6054C92.3423 53.6664 90.8948 52.3116 88.8217 52.3116H83.2773V64.2319H88.8506C91.04 64.2319 92.6907 62.6895 92.6907 60.6436C92.6907 59.5421 92.2091 58.5758 91.3965 57.937Z" fill="#13322B"/>
<path d="M121.172 54.3728H125.462V64.2319H127.557V54.3728H131.861V52.3116H121.172V54.3728Z" fill="#13322B"/>
<path d="M150.313 52.3119L149.442 60.1533C149.238 62.0353 148.691 62.1711 147.814 62.1711H146.926V64.2466H147.79C150.107 64.2466 151.224 63.0675 151.524 60.305L152.179 54.3584H155.872V64.2322H157.972V52.3119H150.313Z" fill="#13322B"/>
<path d="M31.2078 62.3454C28.9354 62.3454 27.2217 60.5943 27.2217 58.2724C27.2217 55.9505 28.9354 54.1993 31.2078 54.1993C33.5061 54.1993 35.1746 55.9124 35.1746 58.2724C35.1746 60.6324 33.5061 62.3454 31.2078 62.3454ZM37.3025 52.2957H35.196V53.5749C34.1322 52.6364 32.7333 52.1092 31.1742 52.1092C27.7156 52.1092 25.1079 54.759 25.1079 58.2724C25.1079 61.786 27.7156 64.4355 31.1742 64.4355C32.7327 64.4355 34.1316 63.9083 35.196 62.9687V64.2274H35.2797V64.2327H37.2884V64.2274H37.3025V52.2957Z" fill="#13322B"/>
</svg>
