<svg width="129" height="55" viewBox="0 0 129 55" fill="none" xmlns="http://www.w3.org/2000/svg">
<path d="M59.139 5.35252C56.1308 8.36074 56.1308 13.2377 59.139 16.2459L64.3698 21.4768L69.601 16.2459C72.6089 13.2377 72.6089 8.36074 69.601 5.35252L64.3698 0.121654L59.139 5.35252Z" fill="#C2A84D"/>
<path d="M82.5437 6.47673C78.2896 6.47673 74.8408 9.92547 74.8408 14.1796V21.5773H82.2385C86.4926 21.5773 89.9414 18.1285 89.9414 13.8744V6.47673H82.5437Z" fill="#C2A84D"/>
<path d="M38.7104 13.8449C38.7104 18.099 42.1592 21.5477 46.4133 21.5477H53.811V14.1501C53.811 9.89593 50.3622 6.44719 46.1081 6.44719H38.7104V13.8449Z" fill="#C2A84D"/>
<path d="M38.7681 30.7339H89.9255V24.6358H38.7681V30.7339Z" fill="#C2A84D"/>
<path d="M81.5947 50.3357C79.7422 50.3357 78.3452 48.9082 78.3452 47.0153C78.3452 45.1225 79.7422 43.695 81.5947 43.695C83.4683 43.695 84.8285 45.0915 84.8285 47.0153C84.8285 48.9392 83.4683 50.3357 81.5947 50.3357ZM86.5631 42.1431H84.8459V43.186C83.9787 42.4209 82.8383 41.9911 81.5673 41.9911C78.7481 41.9911 76.6221 44.1513 76.6221 47.0153C76.6221 49.8797 78.7481 52.0396 81.5673 52.0396C82.8378 52.0396 83.9782 51.6098 84.8459 50.8438V51.8699H84.9141V51.8742H86.5516V51.8699H86.5631V42.1431Z" fill="#13322B"/>
<path d="M113.105 50.3357C111.252 50.3357 109.856 48.9082 109.856 47.0153C109.856 45.1225 111.252 43.695 113.105 43.695C114.979 43.695 116.339 45.0915 116.339 47.0153C116.339 48.9392 114.979 50.3357 113.105 50.3357ZM118.073 42.1431H116.356V43.186C115.489 42.4209 114.349 41.9911 113.078 41.9911C110.258 41.9911 108.132 44.1513 108.132 47.0153C108.132 49.8797 110.258 52.0396 113.078 52.0396C114.348 52.0396 115.488 51.6098 116.356 50.8438V51.8699H116.424V51.8742H118.062V51.8699H118.073V42.1431Z" fill="#13322B"/>
<path d="M14.2842 50.3355C12.4319 50.3355 11.0347 48.9083 11.0347 47.0154C11.0347 45.1226 12.4319 43.6951 14.2842 43.6951C16.1577 43.6951 17.5177 45.0915 17.5177 47.0154C17.5177 48.9393 16.1577 50.3355 14.2842 50.3355ZM14.3119 41.9912C13.0719 41.9912 11.9267 42.4334 11.0507 43.1999V42.1432H9.3335V45.8631H9.33517V54.8784H11.0507V50.8348C11.9275 51.6008 13.075 52.0394 14.3116 52.0394C17.1197 52.0394 19.2375 49.8793 19.2375 47.0154C19.2375 44.1511 17.1197 41.9912 14.3119 41.9912" fill="#13322B"/>
<path d="M93.2027 50.3288C91.3504 50.3288 89.9532 48.9015 89.9532 47.0087C89.9532 45.1159 91.3504 43.6883 93.2027 43.6883C95.0762 43.6883 96.4362 45.0848 96.4362 47.0087C96.4362 48.9326 95.0762 50.3288 93.2027 50.3288ZM93.2303 41.9845C91.9904 41.9845 90.8452 42.4267 89.9692 43.1932V42.1365H88.252V45.8563H88.2536V54.8717H89.9692V50.828C90.8459 51.5941 91.9935 52.0327 93.2301 52.0327C96.0381 52.0327 98.156 49.8726 98.156 47.0087C98.156 44.1444 96.0381 41.9845 93.2303 41.9845" fill="#13322B"/>
<path d="M38.7455 42.1583V45.9939H33.8019V42.1573H32.0942V51.886H33.8019V47.6877H38.7455V51.8793H40.4534V42.1583H38.7455Z" fill="#13322B"/>
<path d="M0 51.874H1.70767V43.833H7.58022V42.1566H0V51.874Z" fill="#13322B"/>
<path d="M49.4674 43.8171V50.1781H45.2397C45.5929 49.1976 45.7829 47.5116 46.0461 43.8171H49.4674ZM51.1751 42.1448H44.458L44.4165 42.706C44.0101 48.2485 43.8411 49.5591 43.3412 50.1781H42.0444V54.2643H43.7287V51.8739H50.7195V54.2643H52.4038V50.1781H51.1751V42.1448Z" fill="#13322B"/>
<path d="M66.1723 42.1566H63.9375L60.603 45.9843H59.885V42.1566H58.1694V51.874H59.885V47.6724H60.594L64.2281 51.874H66.4718L62.1093 46.8317L66.1723 42.1566Z" fill="#13322B"/>
<path d="M69.5954 47.6409H72.3724C73.2462 47.6409 73.8337 48.1506 73.8337 48.9092C73.8337 49.6681 73.2529 50.178 72.3881 50.178H69.5954V47.6409ZM72.3564 45.9566H69.5954V43.8487H72.3564C73.1135 43.8487 73.566 44.2437 73.566 44.9047C73.566 45.5533 73.1023 45.9566 72.3564 45.9566V45.9566ZM74.5065 46.7422C74.9976 46.2625 75.2775 45.5967 75.2775 44.8415C75.2775 43.2607 74.0974 42.1563 72.4074 42.1563H67.8877V51.8738H72.4311C74.2158 51.8738 75.5615 50.6164 75.5615 48.9486C75.5615 48.0506 75.1689 47.2629 74.5065 46.7422" fill="#13322B"/>
<path d="M98.7798 43.8366H102.277V51.8738H103.985V43.8366H107.493V42.1563H98.7798V43.8366Z" fill="#13322B"/>
<path d="M122.535 42.1565L121.825 48.5488C121.659 50.083 121.213 50.1937 120.498 50.1937H119.774V51.8856H120.479C122.368 51.8856 123.278 50.9244 123.522 48.6724L124.056 43.8248H127.067V51.8739H128.779V42.1565H122.535Z" fill="#13322B"/>
<path d="M25.4404 50.3357C23.5879 50.3357 22.191 48.9082 22.191 47.0153C22.191 45.1225 23.5879 43.695 25.4404 43.695C27.314 43.695 28.6742 45.0915 28.6742 47.0153C28.6742 48.9392 27.314 50.3357 25.4404 50.3357ZM30.4088 42.1431H28.6916V43.186C27.8244 42.4209 26.684 41.9911 25.413 41.9911C22.5935 41.9911 20.4678 44.1513 20.4678 47.0153C20.4678 49.8797 22.5935 52.0396 25.413 52.0396C26.6835 52.0396 27.8239 51.6098 28.6916 50.8438V51.8699H28.7598V51.8742H30.3974V51.8699H30.4088V42.1431Z" fill="#13322B"/>
</svg>
