<svg width="107" height="33" viewBox="0 0 107 33" xmlns="http://www.w3.org/2000/svg"><path fill="gray" d="M102.353 13.9269C104.863 13.9269 106.898 11.943 106.898 9.49572C106.898 7.04847 104.863 5.06458 102.353 5.06458C99.8426 5.06458 97.8076 7.04847 97.8076 9.49572C97.8076 11.943 99.8426 13.9269 102.353 13.9269Z"/><path fill="gray" d="M96.2712 17.83C97.7063 17.83 98.8696 16.6958 98.8696 15.2968C98.8696 13.8978 97.7063 12.7637 96.2712 12.7637C94.8362 12.7637 93.6729 13.8978 93.6729 15.2968C93.6729 16.6958 94.8362 17.83 96.2712 17.83Z"/><path fill="gray" d="M100.009 20.4929C100.8 20.4929 101.44 19.8683 101.44 19.0978C101.44 18.3273 100.8 17.7026 100.009 17.7026C99.2188 17.7026 98.5781 18.3273 98.5781 19.0978C98.5781 19.8683 99.2188 20.4929 100.009 20.4929Z"/><path fill="gray" d="M63.2549 32.4795L69.2166 17.6866H73.5517L79.5128 32.4795H75.3945L74.5267 30.1549H68.2409L67.3734 32.4795H63.2549ZM69.4334 26.9849H73.3345L71.7742 22.7164C71.6447 22.3569 71.514 21.9975 71.3833 21.2158C71.254 21.9975 71.1236 22.3569 70.9941 22.7164L69.4334 26.9849Z"/><path fill="gray" d="M16.9769 17.6989V32.4783H12.9703V24.624L9.72186 29.4803H7.42622L4.17721 24.6031V32.4783H0.170898V17.6989H3.96092L8.57448 24.624L13.1869 17.6989H16.9769Z"/><path fill="gray" d="M87.7312 17.6477C91.0613 17.6477 93.0639 18.8357 93.0639 21.4034C93.0639 23.0371 92.2591 24.1194 90.8005 24.6286C92.4326 25.0951 93.6729 26.2411 93.6729 28.2991C93.6729 31.6728 90.3653 32.5003 87.4697 32.5003H80.8545V17.6477H87.7312ZM87.6016 26.3254H84.859V29.4234H87.6016C88.8199 29.4234 89.6256 29.0411 89.6256 27.8746C89.6256 26.7077 88.8199 26.3254 87.6016 26.3254ZM87.3619 20.724H84.8804V23.4611L87.3619 23.4823C88.4284 23.4823 89.038 22.952 89.038 22.1034C89.038 21.2548 88.4281 20.724 87.3619 20.724Z"/><path fill="gray" d="M57.713 28.5344C54.8667 28.5344 53.9418 26.6638 53.9418 24.4004C53.9418 24.3593 53.9418 17.7258 53.9418 17.7258H49.917L49.9343 25.0501H49.9416C49.9416 29.3001 52.9134 32.4547 56.7198 32.4547C59.3976 32.4547 60.023 32.4798 61.9233 32.4798V28.5344C60.6355 28.5344 57.8004 28.5344 57.713 28.5344Z"/><path fill="gray" d="M26.8491 17.3838C32.2759 17.3838 34.9889 20.9812 34.9889 25.1078C34.9889 29.2344 32.2756 32.8318 26.8491 32.8318C21.4225 32.8318 18.709 29.2344 18.709 25.1078C18.709 20.9812 21.4225 17.3838 26.8491 17.3838ZM26.8491 20.9812C24.2226 20.9812 22.8334 22.7378 22.8334 25.1078C22.8334 27.4778 24.2226 29.2344 26.8491 29.2344C29.4753 29.2344 30.8651 27.4781 30.8651 25.1078C30.8651 22.7378 29.4753 20.9812 26.8491 20.9812Z"/><path fill="gray" d="M41.8945 17.3838C43.7825 17.3838 45.6714 17.8281 46.9955 18.5686V22.1661C45.693 21.2138 43.978 20.7484 42.2201 20.7695C40.7442 20.7906 40.2879 21.1715 40.2879 21.7218C40.2879 23.6475 48.1891 23.0552 48.1891 28.3029C48.1891 31.8155 45.4325 32.8315 42.1114 32.8315C39.9195 32.8315 37.8785 32.3446 36.2719 31.4772V27.7741C38.074 28.9804 40.071 29.4458 41.8075 29.4458C43.3921 29.4458 44.065 29.1918 44.065 28.4512C44.065 26.3138 36.1641 27.0332 36.1641 21.7429C36.1641 18.7804 38.7689 17.3838 41.8945 17.3838Z"/></svg>