<svg width="30" height="29" viewBox="0 0 30 29" xmlns="http://www.w3.org/2000/svg"><path d="M22.25 20.625H23.6094C24.2097 20.6233 24.7849 20.3922 25.2094 19.9824C25.6339 19.5725 25.8732 19.0171 25.875 18.4375V9.6875C25.8732 9.10787 25.6339 8.55248 25.2094 8.14262C24.7849 7.73276 24.2097 7.50173 23.6094 7.5H6.39062C5.7903 7.50173 5.21507 7.73276 4.79057 8.14262C4.36607 8.55248 4.12679 9.10787 4.125 9.6875V18.4375C4.12679 19.0171 4.36607 19.5725 4.79057 19.9824C5.21507 20.3922 5.7903 20.6233 6.39062 20.625H7.75" stroke="#1C1C1C" stroke-linejoin="round"/><path d="M20.8725 13.625H9.1275C8.36673 13.625 7.75 14.2205 7.75 14.955V23.67C7.75 24.4045 8.36673 25 9.1275 25H20.8725C21.6333 25 22.25 24.4045 22.25 23.67V14.955C22.25 14.2205 21.6333 13.625 20.8725 13.625Z" stroke="#1C1C1C" stroke-linejoin="round"/><path d="M22.25 7.5V6.1875C22.2482 5.60787 22.0089 5.05248 21.5844 4.64262C21.1599 4.23275 20.5847 4.00173 19.9844 4H10.0156C9.4153 4.00173 8.84007 4.23275 8.41557 4.64262C7.99107 5.05248 7.75179 5.60787 7.75 6.1875V7.5" stroke="#1C1C1C" stroke-linejoin="round"/><path d="M22.7031 11.875C23.4539 11.875 24.0625 11.2874 24.0625 10.5625C24.0625 9.83763 23.4539 9.25 22.7031 9.25C21.9524 9.25 21.3438 9.83763 21.3438 10.5625C21.3438 11.2874 21.9524 11.875 22.7031 11.875Z"/></svg>