<svg width="24" height="24" viewBox="0 0 24 24" fill="none" xmlns="http://www.w3.org/2000/svg"><path d="M0.145 0.5H23.145V23.5H0.145z"/><g clip-path="url(#clip123)" fill="#fff"><path d="M5.97656 16.1562H6.90625V17.7969C6.90625 18.4603 7.44596 19 8.10938 19H14.8906C15.554 19 16.0938 18.4603 16.0938 17.7969V16.1562H17.0234C17.8376 16.1562 18.5 15.4939 18.5 14.6797V9.53906C18.5 8.72488 17.8376 8.0625 17.0234 8.0625H16.0938V6.20312C16.0938 5.53971 15.554 5 14.8906 5H8.10938C7.44596 5 6.90625 5.53971 6.90625 6.20312V8.0625H5.97656C5.16238 8.0625 4.5 8.72488 4.5 9.53906V14.6797C4.5 15.4939 5.16238 16.1562 5.97656 16.1562ZM14.7812 17.6875H8.21875V13.3125H14.7812V17.6875ZM8.21875 6.3125H14.7812V8.0625H8.21875V6.3125ZM5.8125 9.53906C5.8125 9.44858 5.88608 9.375 5.97656 9.375H17.0234C17.1139 9.375 17.1875 9.44858 17.1875 9.53906V14.6797C17.1875 14.7702 17.1139 14.8438 17.0234 14.8438H16.0938V12.6562C16.0938 12.2938 15.7999 12 15.4375 12H7.5625C7.20006 12 6.90625 12.2938 6.90625 12.6562V14.8438H5.97656C5.88608 14.8438 5.8125 14.7702 5.8125 14.6797V9.53906Z"/><path d="M7.12611 11.3438C7.48855 11.3438 7.78236 11.0499 7.78236 10.6875C7.78236 10.3251 7.48855 10.0312 7.12611 10.0312H7.12584C6.76343 10.0312 6.46973 10.3251 6.46973 10.6875C6.46973 11.0499 6.76367 11.3438 7.12611 11.3438V11.3438Z"/></g><defs><clipPath id="clip123"><path fill="#fff" transform="translate(4.5 5)" d="M0 0H14V14H0z"/></clipPath></defs></svg>